<?xml version="1.0" encoding="UTF-8"?>
<svg width="57px" height="16px" viewBox="0 0 57 16" version="1.1" xmlns="http://www.w3.org/2000/svg" xmlns:xlink="http://www.w3.org/1999/xlink">
    <title>Logo</title>
    <defs>
        <path d="M50.4614984,0 C52.9090341,0 55.0476575,0.377588767 56.8446952,1.072715 L56.8446952,5.58563521 C54.9861296,4.5764277 53.3732511,4.13360335 51.4820121,4.13360335 C48.2588011,4.13360335 45.6245602,5.6163089 45.6245602,7.98293506 C45.6245602,10.3188875 48.3211776,11.8339949 51.544813,11.8339949 C53.4055002,11.8339949 54.9229044,11.4559741 57,10.4765762 L57,14.6421493 C55.0786336,15.5576077 52.6922014,16 50.1496158,16 C42.4628771,16 39.8286362,11.6443364 39.8286362,8.04644255 C39.8286362,7.67427076 39.8548552,7.3090684 39.9066971,6.95219188 C39.1138794,8.72509139 36.9870174,10.2241447 32.6078543,10.2241447 L29.939667,10.2241447 L29.939667,15.8093479 L23.4940936,15.8093479 L23.4940936,6.75326583 L31.521145,6.75326583 C33.5371371,6.75326583 34.3412425,6.62711489 34.3412425,5.17508303 C34.3412425,3.83318743 33.7352286,3.64031682 31.8235047,3.62861099 L23.4936693,3.62800594 L21.6953586,0.220634535 L32.9778701,0.220634535 C38.3104257,0.220634535 40.2928957,2.58855677 40.2928957,5.11200756 C40.2928957,5.24094651 40.2877513,5.37059184 40.2771339,5.50050574 C41.4779571,2.25885476 45.0602298,0 50.4614984,0 Z M15.1562205,0.220807344 L23.4938815,15.8095207 L10.1677965,15.8095207 L8.15180444,12.1498474 L15.4354296,12.1498474 L11.7777047,4.26109356 L6.41544591,15.8095207 L0,15.8095207 L8.39918886,0.220807344 L15.1562205,0.220807344 Z" id="path-1"></path>
    </defs>
    <g id="Symbols" stroke="none" stroke-width="1" fill="none" fill-rule="evenodd">
        <g id="Brand_item/APC/Square" transform="translate(-22.000000, -27.000000)">
            <g id="Logo" transform="translate(22.000000, 27.000000)">
                <mask id="mask-2" fill="white">
                    <use xlink:href="#path-1"></use>
                </mask>
                <use id="&quot;APC&quot;" fill="#F8002D" xlink:href="#path-1"></use>
            </g>
        </g>
    </g>
</svg>