<?xml version="1.0" encoding="UTF-8"?>
<svg width="83px" height="16px" viewBox="0 0 83 16" version="1.1" xmlns="http://www.w3.org/2000/svg" xmlns:xlink="http://www.w3.org/1999/xlink">
    <title>ASCO</title>
    <g id="Symbols" stroke="none" stroke-width="1" fill="none" fill-rule="evenodd">
        <g id="Brand_item/ASCO/Square" transform="translate(-10.000000, -27.000000)">
            <g id="ASCO" transform="translate(10.000000, 27.000000)">
                <path d="M34.3005371,0.380065918 C36.4427325,0.380065918 38.191616,2.06403439 38.2956418,4.18042557 L38.3005371,4.38006592 L38.3005371,11.6507568 C38.3005371,13.7929522 36.6165686,15.5418357 34.5001775,15.6458615 L34.3005371,15.6507568 L33.6975708,15.6507568 C31.5553754,15.6507568 29.8064919,13.9667884 29.7024661,11.8503972 L29.6975708,11.6507568 L29.6975708,4.38006592 C29.6975708,2.23787052 31.3815393,0.488987042 33.4979305,0.384961225 L33.6975708,0.380065918 L34.3005371,0.380065918 Z M24.3005371,0.380065918 C26.4427325,0.380065918 28.191616,2.06403439 28.2956418,4.18042557 L28.3005371,4.38006592 L28.2995708,6.99906592 L24.5535708,6.99906592 L24.5541382,3.68658447 C24.5541382,3.31396484 24.3491211,2.80114746 23.9423828,2.80114746 C23.5356445,2.80114746 23.3565063,3.38122559 23.3565063,3.68658447 L23.3565063,12.2215576 C23.3565063,12.5759277 23.6289062,13.2232666 23.9736328,13.2232666 C24.3183594,13.2232666 24.5541382,12.4824219 24.5541382,12.2215576 L24.5535708,9.44906592 L28.2995708,9.44906592 L28.3005371,11.6507568 C28.3005371,13.7929522 26.6165686,15.5418357 24.5001775,15.6458615 L24.3005371,15.6507568 L23.6975708,15.6507568 C21.5553754,15.6507568 19.8064919,13.9667884 19.7024661,11.8503972 L19.6975708,11.6507568 L19.6975708,4.38006592 C19.6975708,2.23787052 21.3815393,0.488987042 23.4979305,0.384961225 L23.6975708,0.380065918 L24.3005371,0.380065918 Z M14.0030518,0.239013672 C16.3800659,0.239013672 17.2529297,1.22607422 17.7363892,1.97125244 C18.0586955,2.46803792 18.1878052,3.5051473 18.1237183,5.08258057 L14.776001,5.08258057 L14.776001,3.66680908 L14.776001,3.66680908 C14.776001,3.25952148 14.5669556,2.85968018 14.1637573,2.85968018 C13.7605591,2.85968018 13.4524536,3.07617187 13.4524536,4.07409668 C13.4524536,4.73937988 13.7681681,5.32722982 14.3995972,5.83764648 C15.9401652,6.90547689 17.0175374,7.72595215 17.6317139,8.29907227 C18.5529785,9.15875244 18.5529785,10.8181152 18.5529785,12.0820312 C18.5529785,14.1318359 16.7116089,15.6380005 14.3995972,15.6380005 C11.8192139,15.6380005 10.0928345,14.5445557 10.0928345,12.4188232 L10.0928345,10.1226807 L10.0928345,10.1226807 L13.4524536,10.1226807 L13.4524536,12.0820312 C13.4476522,12.8173828 13.6847534,13.1850586 14.1637573,13.1850586 C14.6427612,13.1850586 14.9056193,12.8173828 14.9523315,12.0820312 C15.005839,11.3677979 14.742981,10.6276652 14.1637573,9.8616333 C13.2949219,8.71258545 11.640625,7.93005371 10.7950439,6.8972168 C9.94946289,5.86437988 9.71539307,3.56542969 10.2025146,2.45410156 C10.6896362,1.34277344 11.6260376,0.239013672 14.0030518,0.239013672 Z M7.42211914,0.727600098 L9.56195068,15.309082 L5.80407715,15.309082 L5.54711914,12.7044067 L4.24694824,12.7044067 L3.95031738,15.309082 L0.129516602,15.309082 L2.06549072,0.727600098 L7.42211914,0.727600098 Z M33.9423828,2.80114746 C33.5356445,2.80114746 33.3565063,3.38122559 33.3565063,3.68658447 L33.3565063,12.2215576 C33.3565063,12.5759277 33.6289062,13.2232666 33.9736328,13.2232666 C34.3183594,13.2232666 34.5541382,12.4824219 34.5541382,12.2215576 L34.5541382,3.68658447 C34.5541382,3.31396484 34.3491211,2.80114746 33.9423828,2.80114746 Z M4.84573364,4.12200928 L4.18060303,10.0725708 L5.49078369,10.0725708 L4.84573364,4.12200928 Z" fill="#3DCD58"></path>
                <path d="M43.81,7.072 C43.924,7.072 44.098,7.006 44.098,6.688 L44.098,5.236 L45.106,5.236 C45.496,5.236 45.952,5.116 46.192,4.87 C46.402,4.654 46.54,4.33 46.54,3.952 C46.54,3.574 46.408,3.25 46.162,3.022 C45.934,2.812 45.628,2.704 45.106,2.704 L44.008,2.704 C43.606,2.704 43.522,2.74 43.522,3.154 L43.522,6.694 C43.522,6.928 43.6,7.072 43.81,7.072 Z M44.95,4.774 L44.098,4.774 L44.098,3.166 L44.968,3.166 C45.394,3.166 45.646,3.25 45.79,3.448 C45.898,3.592 45.952,3.778 45.952,3.964 C45.952,4.498 45.592,4.774 44.95,4.774 Z M48.22,7.072 C49.114,7.072 49.684,6.478 49.684,5.446 C49.684,4.408 49.108,3.82 48.22,3.82 C47.302,3.82 46.756,4.426 46.756,5.5 C46.756,6.436 47.32,7.072 48.22,7.072 Z M48.226,6.664 C47.644,6.664 47.29,6.208 47.29,5.446 C47.29,4.696 47.644,4.228 48.22,4.228 C48.79,4.228 49.15,4.672 49.15,5.446 C49.15,6.196 48.808,6.664 48.226,6.664 Z M53.416,6.658 L54.208,4.318 C54.256,4.168 54.274,4.12 54.274,4.048 C54.274,3.934 54.172,3.82 54.034,3.82 C53.83,3.82 53.806,3.958 53.71,4.264 L53.056,6.388 L52.444,4.192 C52.384,3.982 52.336,3.82 52.114,3.82 C51.892,3.82 51.844,3.976 51.778,4.216 L51.172,6.388 L50.518,4.27 C50.434,3.994 50.398,3.82 50.194,3.82 C50.05,3.82 49.954,3.934 49.954,4.048 C49.954,4.102 49.984,4.216 50.068,4.462 L50.824,6.694 C50.896,6.91 50.944,7.072 51.178,7.072 C51.34,7.072 51.448,6.964 51.508,6.754 L52.114,4.594 L52.696,6.67 C52.786,7 52.882,7.072 53.05,7.072 C53.23,7.072 53.278,7.054 53.416,6.658 Z M56.11,7.072 C56.56,7.072 56.872,6.94 57.076,6.772 C57.334,6.556 57.43,6.256 57.43,6.178 C57.43,6.076 57.352,5.974 57.232,5.974 C57.148,5.974 57.118,5.956 56.926,6.256 C56.74,6.544 56.5,6.688 56.134,6.688 C55.54,6.688 55.18,6.268 55.162,5.548 L57.052,5.548 C57.394,5.548 57.49,5.446 57.49,5.212 C57.49,4.942 57.406,4.678 57.268,4.438 C57.046,4.054 56.65,3.82 56.098,3.82 C55.156,3.82 54.628,4.474 54.628,5.44 C54.628,6.454 55.168,7.072 56.11,7.072 Z M56.956,5.188 L55.168,5.188 C55.246,4.54 55.564,4.204 56.074,4.204 C56.596,4.204 56.902,4.558 56.956,5.188 Z M58.468,7.072 C58.636,7.072 58.726,6.946 58.726,6.784 L58.726,5.602 C58.726,4.708 58.936,4.324 59.386,4.324 C59.59,4.324 59.698,4.414 59.818,4.414 C59.896,4.414 60.028,4.324 60.028,4.174 C60.028,3.97 59.704,3.82 59.41,3.82 C59.122,3.82 58.93,3.94 58.654,4.39 L58.654,4.108 C58.654,3.886 58.564,3.82 58.432,3.82 C58.282,3.82 58.204,3.886 58.204,4.126 L58.204,6.736 C58.204,6.982 58.306,7.072 58.468,7.072 Z M44.746,14.072 C45.004,14.072 45.034,13.892 45.034,13.622 L45.034,10.166 L46.036,10.166 C46.3,10.166 46.426,10.106 46.426,9.938 C46.426,9.77 46.3,9.704 46.036,9.704 L43.462,9.704 C43.216,9.704 43.072,9.764 43.072,9.938 C43.072,10.1 43.192,10.166 43.462,10.166 L44.458,10.166 L44.458,13.622 C44.458,13.94 44.53,14.072 44.746,14.072 Z M47.536,14.072 C47.986,14.072 48.298,13.94 48.502,13.772 C48.76,13.556 48.856,13.256 48.856,13.178 C48.856,13.076 48.778,12.974 48.658,12.974 C48.574,12.974 48.544,12.956 48.352,13.256 C48.166,13.544 47.926,13.688 47.56,13.688 C46.966,13.688 46.606,13.268 46.588,12.548 L48.478,12.548 C48.82,12.548 48.916,12.446 48.916,12.212 C48.916,11.942 48.832,11.678 48.694,11.438 C48.472,11.054 48.076,10.82 47.524,10.82 C46.582,10.82 46.054,11.474 46.054,12.44 C46.054,13.454 46.594,14.072 47.536,14.072 Z M48.382,12.188 L46.594,12.188 C46.672,11.54 46.99,11.204 47.5,11.204 C48.022,11.204 48.328,11.558 48.382,12.188 Z M50.926,14.072 C51.286,14.072 51.598,13.97 51.82,13.79 C52.084,13.574 52.264,13.256 52.264,13.088 C52.264,12.938 52.138,12.848 52.024,12.848 C51.934,12.848 51.838,12.92 51.796,13.022 C51.58,13.532 51.25,13.664 50.896,13.664 C50.302,13.664 49.942,13.202 49.942,12.428 C49.942,11.684 50.326,11.228 50.908,11.228 C51.262,11.228 51.52,11.39 51.676,11.648 C51.826,11.906 51.85,11.93 51.97,11.93 C52.09,11.93 52.204,11.84 52.204,11.702 C52.204,11.372 51.748,10.82 50.902,10.82 C49.942,10.82 49.42,11.456 49.42,12.458 C49.42,12.956 49.546,13.346 49.81,13.646 C50.056,13.922 50.434,14.072 50.926,14.072 Z M55.204,14.072 C55.396,14.072 55.474,13.982 55.474,13.664 L55.474,11.972 C55.474,11.726 55.444,11.516 55.36,11.354 C55.168,10.988 54.802,10.82 54.4,10.82 C53.998,10.82 53.704,10.97 53.422,11.336 L53.422,10.028 C53.422,9.698 53.32,9.632 53.152,9.632 C52.984,9.632 52.9,9.71 52.9,10.028 L52.9,13.67 C52.9,13.988 52.984,14.072 53.152,14.072 C53.398,14.072 53.422,13.892 53.422,13.67 L53.422,12.554 C53.422,12.278 53.434,12.05 53.482,11.876 C53.614,11.408 54.004,11.246 54.304,11.246 C54.502,11.246 54.766,11.348 54.874,11.576 C54.934,11.702 54.952,11.87 54.952,12.104 L54.952,13.664 C54.952,13.982 55.03,14.072 55.204,14.072 Z M58.654,14.072 C58.846,14.072 58.912,13.94 58.912,13.772 L58.912,11.984 C58.912,11.69 58.876,11.474 58.798,11.336 C58.648,11.072 58.306,10.82 57.832,10.82 C57.424,10.82 57.124,10.982 56.848,11.354 L56.848,11.264 C56.848,10.898 56.752,10.82 56.59,10.82 C56.428,10.82 56.338,10.934 56.338,11.078 L56.338,13.76 C56.338,14 56.458,14.072 56.596,14.072 C56.722,14.072 56.86,14.006 56.86,13.736 L56.86,12.59 C56.86,12.218 56.89,11.96 56.95,11.81 C57.07,11.51 57.382,11.276 57.748,11.276 C57.982,11.276 58.234,11.39 58.336,11.678 C58.378,11.792 58.39,11.942 58.39,12.128 L58.39,13.766 C58.39,13.94 58.456,14.072 58.654,14.072 Z M61.048,14.072 C61.942,14.072 62.512,13.478 62.512,12.446 C62.512,11.408 61.936,10.82 61.048,10.82 C60.13,10.82 59.584,11.426 59.584,12.5 C59.584,13.436 60.148,14.072 61.048,14.072 Z M61.054,13.664 C60.472,13.664 60.118,13.208 60.118,12.446 C60.118,11.696 60.472,11.228 61.048,11.228 C61.618,11.228 61.978,11.672 61.978,12.446 C61.978,13.196 61.636,13.664 61.054,13.664 Z M63.49,14.072 C63.706,14.072 63.754,13.928 63.754,13.67 L63.754,10.04 C63.754,9.752 63.682,9.632 63.49,9.632 C63.274,9.632 63.232,9.77 63.232,10.04 L63.232,13.676 C63.232,14.006 63.328,14.072 63.49,14.072 Z M65.926,14.072 C66.82,14.072 67.39,13.478 67.39,12.446 C67.39,11.408 66.814,10.82 65.926,10.82 C65.008,10.82 64.462,11.426 64.462,12.5 C64.462,13.436 65.026,14.072 65.926,14.072 Z M65.932,13.664 C65.35,13.664 64.996,13.208 64.996,12.446 C64.996,11.696 65.35,11.228 65.926,11.228 C66.496,11.228 66.856,11.672 66.856,12.446 C66.856,13.196 66.514,13.664 65.932,13.664 Z M69.364,15.278 C69.838,15.278 70.222,15.176 70.51,14.93 C70.792,14.69 70.894,14.312 70.894,13.706 L70.894,11.246 C70.894,10.886 70.81,10.82 70.642,10.82 C70.48,10.82 70.39,10.916 70.39,11.156 L70.39,11.384 C70.108,11.006 69.742,10.82 69.286,10.82 C68.404,10.82 67.912,11.522 67.912,12.434 C67.912,13.172 68.272,14.048 69.31,14.048 C69.7,14.048 70.042,13.898 70.372,13.562 L70.372,13.742 C70.372,14.114 70.336,14.366 70.228,14.528 C70.06,14.774 69.754,14.87 69.37,14.87 C69.004,14.87 68.758,14.792 68.584,14.51 C68.446,14.288 68.404,14.24 68.284,14.24 C68.134,14.24 68.044,14.36 68.044,14.462 C68.044,14.612 68.2,14.9 68.482,15.068 C68.704,15.2 68.998,15.278 69.364,15.278 Z M69.406,13.64 C68.824,13.64 68.446,13.208 68.446,12.446 C68.446,11.618 68.872,11.228 69.406,11.228 C69.982,11.228 70.372,11.69 70.372,12.47 C70.372,13.238 69.94,13.64 69.406,13.64 Z M72.058,10.304 C72.22,10.304 72.346,10.172 72.346,10.01 C72.346,9.848 72.22,9.722 72.058,9.722 C71.896,9.722 71.77,9.848 71.77,10.01 C71.77,10.172 71.896,10.304 72.058,10.304 Z M72.058,14.072 C72.25,14.072 72.322,13.946 72.322,13.652 L72.322,11.21 C72.322,10.892 72.232,10.82 72.064,10.82 C71.848,10.82 71.794,10.958 71.794,11.222 L71.794,13.67 C71.794,13.964 71.872,14.072 72.058,14.072 Z M74.524,14.072 C74.974,14.072 75.286,13.94 75.49,13.772 C75.748,13.556 75.844,13.256 75.844,13.178 C75.844,13.076 75.766,12.974 75.646,12.974 C75.562,12.974 75.532,12.956 75.34,13.256 C75.154,13.544 74.914,13.688 74.548,13.688 C73.954,13.688 73.594,13.268 73.576,12.548 L75.466,12.548 C75.808,12.548 75.904,12.446 75.904,12.212 C75.904,11.942 75.82,11.678 75.682,11.438 C75.46,11.054 75.064,10.82 74.512,10.82 C73.57,10.82 73.042,11.474 73.042,12.44 C73.042,13.454 73.582,14.072 74.524,14.072 Z M75.37,12.188 L73.582,12.188 C73.66,11.54 73.978,11.204 74.488,11.204 C75.01,11.204 75.316,11.558 75.37,12.188 Z M77.65,14.072 C78.508,14.072 78.958,13.67 78.958,13.094 C78.958,12.626 78.598,12.332 77.926,12.194 C77.236,12.05 76.948,11.924 76.948,11.63 C76.948,11.348 77.242,11.192 77.626,11.192 C77.986,11.192 78.196,11.336 78.34,11.594 C78.412,11.72 78.49,11.786 78.574,11.786 C78.718,11.786 78.796,11.69 78.796,11.57 C78.796,11.456 78.688,11.216 78.49,11.066 C78.292,10.916 78.004,10.82 77.614,10.82 C76.888,10.82 76.45,11.198 76.45,11.708 C76.45,11.906 76.528,12.158 76.828,12.344 C77.02,12.458 77.278,12.542 77.728,12.65 C78.232,12.77 78.412,12.938 78.412,13.202 C78.412,13.46 78.166,13.7 77.686,13.7 C77.182,13.7 76.966,13.448 76.864,13.184 C76.816,13.058 76.726,12.998 76.63,12.998 C76.504,12.998 76.402,13.1 76.402,13.214 C76.402,13.406 76.522,13.646 76.762,13.826 C76.978,13.988 77.254,14.072 77.65,14.072 Z" id="PowerTechnologies" fill="#333333" fill-rule="nonzero"></path>
                <path d="M81.48,12.036 C82.312,12.036 82.956,11.356 82.956,10.56 C82.956,9.76 82.308,9.088 81.48,9.088 C80.684,9.088 80.004,9.728 80.004,10.56 C80.004,11.368 80.656,12.036 81.48,12.036 Z M81.48,11.788 C80.788,11.788 80.252,11.232 80.252,10.56 C80.252,9.864 80.824,9.336 81.476,9.336 C82.168,9.336 82.708,9.892 82.708,10.56 C82.708,11.232 82.168,11.788 81.48,11.788 Z M81.088,11.376 L81.088,10.704 L81.22,10.704 C81.408,10.704 81.484,10.724 81.704,11.112 L81.852,11.376 L82.164,11.376 L81.892,10.944 C81.8,10.796 81.7,10.704 81.604,10.668 C81.876,10.652 82.056,10.448 82.056,10.22 C82.056,10.12 82.02,10.004 81.908,9.908 C81.804,9.82 81.66,9.792 81.404,9.792 L80.832,9.792 L80.832,11.376 L81.088,11.376 Z M81.416,10.484 L81.088,10.484 L81.088,10.008 L81.404,10.008 C81.692,10.008 81.784,10.088 81.784,10.244 C81.784,10.404 81.668,10.484 81.416,10.484 Z" id="®" fill="#333333" fill-rule="nonzero"></path>
            </g>
        </g>
    </g>
</svg>