<?xml version="1.0" encoding="UTF-8"?>
<svg width="240px" height="50px" viewBox="0 0 240 50" version="1.1" xmlns="http://www.w3.org/2000/svg" xmlns:xlink="http://www.w3.org/1999/xlink">
    <title>Logos / SE / Inverted Full</title>
    <g id="Logos-/-SE-/-Inverted-Full" stroke="none" stroke-width="1" fill="none" fill-rule="evenodd">
        <g id="SE-logo" transform="translate(0.000000, 0.000000)" fill="#FFFFFF">
            <polygon id="Fill-45" points="100.882211 50 101.882211 50 101.882211 0 100.882211 0"></polygon>
            <path d="M68.6123831,16.0380394 C72.198023,17.0256153 74.8413211,20.2929581 74.8413211,24.171216 C74.8413211,28.828496 71.0342775,32.6174339 66.3547423,32.6174339 C61.6752071,32.6174339 57.8681635,28.828496 57.8681635,24.171216 C57.8681635,20.3489937 60.4344149,17.115778 63.9408913,16.0780649 L63.9408913,16.0780649 L63.9408913,17.7136322 C61.3077531,18.6923604 59.4239164,21.213544 59.4239164,24.171216 C59.4239164,27.9749001 62.5333054,31.0695013 66.3547423,31.0695013 C70.1761793,31.0695013 73.2855683,27.9749001 73.2855683,24.171216 C73.2855683,21.1554017 71.3272247,18.5916647 68.6123831,17.6567539 L68.6123831,17.6567539 Z M26.5588388,20.5688389 C26.7095457,20.5688389 26.8496693,20.5852704 26.9948729,20.5932755 C27.0190029,20.5949608 27.043133,20.5962248 27.067263,20.5974887 C27.3263435,20.6147629 27.576534,20.6455193 27.8174111,20.6889153 C27.8605911,20.6964991 27.9046179,20.7036616 27.9473746,20.7125093 C28.155655,20.7546414 28.3563154,20.8081491 28.5502024,20.8705046 C28.6048125,20.8882001 28.6602693,20.9058956 28.713186,20.924855 C28.8888697,20.9880531 29.0569333,21.0605203 29.2194936,21.1409926 C29.2745271,21.1683784 29.3291372,21.1961856 29.3820539,21.2248354 C29.4582541,21.2665461 29.5416509,21.2989879 29.6144643,21.3449118 C30.2782522,21.7590702 30.8129232,22.3383862 31.2036606,23.0668499 C31.827886,24.2300783 31.8909312,25.4187252 31.8972351,25.6666967 L31.8979285,25.7119018 C31.8979285,26.6628228 31.2641973,26.6628228 30.5318293,26.6632442 L22.4795913,26.6632442 C22.505838,28.0388566 22.8715987,29.1911689 23.5383499,29.996313 C24.2618279,30.8701323 25.2943398,31.3129404 26.6070989,31.3129404 C27.2251666,31.3129404 27.7966677,31.194128 28.3059386,30.9598736 C29.1598035,30.56636 29.8087747,29.8648609 30.2363421,28.874757 C30.360379,28.5785685 30.6355462,28.3872888 30.9369601,28.3872888 C31.3641042,28.3872888 31.6621314,28.7163404 31.6621314,29.0104223 C31.6621314,29.1818999 31.4191376,30.0447648 30.6478229,30.8608632 C29.971335,31.5762659 28.713186,32.4290192 26.5592621,32.4290192 C25.6283504,32.4290192 24.7876089,32.2756584 24.0615909,31.9731501 C23.372403,31.6858093 22.7818519,31.2640672 22.306871,30.7188781 C21.4081327,29.6862209 20.9331518,28.2276083 20.9331518,26.4989291 C20.9331518,24.7188487 21.4356494,23.231165 22.3873045,22.1968225 C23.3664763,21.1317235 24.8091989,20.5688389 26.5588388,20.5688389 Z M39.4436473,16.2448236 C40.2640688,16.2448236 40.2640688,16.9290486 40.2640688,17.4792936 L40.2640688,17.4792936 L40.2640688,31.1937066 C40.2640688,31.7435303 40.2640688,32.4285979 39.4677773,32.4285979 C38.6232258,32.4285979 38.6232258,31.7144591 38.6232258,31.1937066 L38.6233928,17.3901219 C38.6260646,16.9027955 38.6714859,16.2448236 39.4436473,16.2448236 Z M77.3519887,20.5469724 C77.5225924,20.5469724 77.6495926,20.5899471 77.7571195,20.6548305 C77.7664328,20.6603077 77.7757462,20.6653635 77.7846362,20.6716833 C77.8104596,20.6898001 77.843903,20.6990692 77.8663397,20.7213992 C78.0780067,20.9320596 78.0775834,21.3015579 78.07716,21.6268176 L78.07716,21.6268176 L78.07716,22.4707231 C78.773968,21.6601019 79.7353597,20.5684597 82.0382973,20.5684597 C83.7875138,20.5684597 84.793779,21.2236136 85.3292966,21.7730159 C86.261055,22.7399471 86.261055,24.164854 86.2614783,24.7736626 L86.2612953,31.398628 C86.2585497,31.8806448 86.2146205,32.4290613 85.5117536,32.4290613 C85.34115,32.4290613 85.2141497,32.3856653 85.1066229,32.3212032 C85.0968862,32.3153047 85.0875728,32.3102489 85.0786828,32.3043504 C85.0524361,32.2862336 85.019416,32.2773859 84.9969793,32.2546345 C84.7853123,32.0439741 84.7857356,31.6748971 84.786159,31.3492161 L84.786159,25.1237801 C84.786159,24.2668136 84.7260455,23.3946796 84.289588,22.8157848 C83.7968271,22.1484127 82.9112122,21.7498432 81.9197637,21.7498432 C81.2513192,21.7498432 80.5498546,21.9402802 79.9449101,22.2861846 C79.3107556,22.6485205 78.8129147,23.1557907 78.5047275,23.752381 C78.1393902,24.468205 78.0775834,25.407329 78.0775834,27.2413384 L78.0775834,27.2413384 L78.0773279,31.4725652 C78.0747986,31.7642698 78.0519717,32.0698854 77.866763,32.2542132 C77.8443263,32.2765432 77.8108829,32.2858123 77.7850595,32.3039291 C77.7761695,32.3098276 77.7664328,32.3148834 77.7571195,32.3207819 C77.6495926,32.385244 77.5225924,32.42864 77.3519887,32.42864 C76.6026874,32.42864 76.6026874,31.8303645 76.6026874,31.3028709 L76.6028703,21.5814327 C76.6056143,21.1187178 76.6495187,20.5469724 77.3519887,20.5469724 Z M12.7388852,20.5685019 C13.4640566,20.5685019 13.4640566,21.2455644 13.4640566,21.6938497 L13.4640566,21.6938497 L13.4640566,31.3244004 C13.4640566,31.8160817 13.4640566,32.4282608 12.7388852,32.4282608 C11.9895839,32.4282608 11.9895839,31.8160817 11.9895839,31.3244004 L11.9897668,21.598588 C11.9925108,21.1169183 12.0364152,20.5685019 12.7388852,20.5685019 Z M19.8775682,16.2449079 C20.5667562,16.2449079 21.3486543,16.3835224 21.6191648,16.5082334 C21.955292,16.6624368 21.959102,16.9855898 21.959102,16.9990721 C21.959102,17.2775652 21.727115,17.5783882 21.3524643,17.5783882 C21.2652574,17.5783882 21.031577,17.5552156 20.8055166,17.5324642 C20.5955429,17.5109769 20.3974225,17.4911748 20.3292657,17.4911748 C18.5474525,17.4911748 18.4141022,18.4201871 18.4141022,19.8379316 L18.4141022,20.8305634 L19.9961018,20.8305634 C20.3246091,20.8305634 20.9359035,20.8305634 20.9359035,21.3222448 C20.9359035,21.6635146 20.6200963,21.8366774 19.9965251,21.8366774 L19.9965251,21.8366774 L18.4145256,21.8366774 L18.4143485,31.4178238 C18.4116929,31.8902128 18.3692024,32.4282608 17.6893543,32.4282608 C16.9400529,32.4282608 16.9400529,31.8160817 16.9400529,31.3244004 L16.9400529,21.8366774 L15.6907939,21.8366774 C15.4097001,21.8366774 14.7514156,21.8366774 14.7514156,21.3222448 C14.7514156,20.8305634 15.4583835,20.8305634 15.6907939,20.8305634 L15.6907939,20.8305634 L16.9400529,20.8305634 L16.9400529,19.6411748 C16.9400529,18.2971615 17.1445233,17.797475 17.2986169,17.538784 C17.5259473,17.1423212 17.9010213,16.8098991 18.3831989,16.5790153 C18.831933,16.3637204 19.362794,16.2449079 19.8775682,16.2449079 Z M47.0328001,20.5678699 C47.9819152,20.5678699 48.8069933,20.7047991 49.4860212,20.9744444 C50.0359322,21.1931099 50.4918631,21.4994102 50.8419604,21.8849187 C51.4223514,22.524905 51.540885,23.2061807 51.540885,23.3532216 C51.540885,23.3591201 51.5328416,23.932959 50.8627038,23.932959 C50.5435098,23.932959 50.3758695,23.8377405 50.1616625,23.2483128 C49.8035218,22.2830668 48.6321564,21.6835273 47.1034969,21.6835273 C45.6294475,21.6835273 44.1418515,22.2409347 44.1418515,23.4846737 C44.1418515,24.1019087 44.4724754,24.5476661 45.1815601,24.8885146 C45.8157146,25.1931295 46.6700028,25.3751401 47.5742444,25.5676837 C48.5085428,25.7669684 49.4597745,25.9809994 50.2658027,26.3370155 L50.2658027,26.3370155 L50.3750229,26.387574 C50.4812797,26.4381325 50.5955799,26.4802646 50.6954868,26.5363002 C51.6958253,27.0958142 52.1822362,27.8971664 52.1826595,28.9867019 C52.1826595,29.342718 52.1018027,30.2578268 51.355888,31.0608642 C50.5138765,31.9675465 49.1232239,32.4272075 47.2224538,32.4272075 C46.3275255,32.4272075 45.5917708,32.3281971 44.973703,32.1263845 C44.5012622,31.9713384 44.1101014,31.7610994 43.7422241,31.4636469 C42.9954627,30.8636861 42.4531718,29.9595316 42.4531718,29.3144895 C42.4531718,29.140484 42.5374152,28.9791182 42.6898155,28.8603057 C42.8278224,28.7532902 43.0060461,28.6913561 43.1787664,28.6913561 C43.6012538,28.6913561 43.7519608,29.0279914 43.9115577,29.3848501 L43.9115577,29.3848501 L43.9272211,29.4193984 C44.5012622,30.6749344 45.6417242,31.3115501 47.3181273,31.3115501 C49.6269915,31.3115501 50.6603501,30.2430805 50.6603501,29.1834587 C50.6603501,27.809953 49.1287273,27.4282363 48.3061891,27.2238957 L48.3061891,27.2238957 L48.2431123,27.2083069 L48.2431123,27.2083069 L47.6355567,27.0561325 C47.3475405,26.9850069 47.0824149,26.9207976 46.8367964,26.8611385 C45.3276103,26.4958534 44.5702656,26.3130002 43.8383209,25.8305879 C43.1203463,25.355338 42.6915089,24.5767372 42.6915089,23.7463139 C42.6915089,23.5782069 42.7262222,22.7001744 43.4141402,21.8933451 C44.1638649,21.0144699 45.3813738,20.5678699 47.0328001,20.5678699 Z M0.796714786,16.2447394 C1.64084299,16.2447394 1.64084299,16.9875279 1.64084299,17.4792093 L1.64084299,30.8536165 L9.41459094,30.8537741 C9.92860856,30.8561378 10.513529,30.893958 10.5139258,31.49908 C10.5139258,32.1660308 9.84802129,32.1660308 9.31292698,32.1660308 L1.36736916,32.1660308 C0.153246946,32.1660308 -7.10542736e-15,32.0248883 -7.10542736e-15,30.9096522 L0.000162164622,17.3809488 C0.00275679857,16.8512081 0.0468655757,16.2447394 0.796714786,16.2447394 Z M26.5101553,21.6836537 C23.7305436,21.6836537 22.6849084,24.1062483 22.5028747,25.548008 L22.5028747,25.548008 L30.3510657,25.548008 C30.2536988,24.5895032 29.957365,21.6836537 26.5101553,21.6836537 Z M67.094307,14.2845865 L67.094307,23.7259641 C67.094307,24.0975691 66.7996665,24.558494 66.2649955,24.558494 C65.7138145,24.558494 65.4030873,24.1123153 65.4030873,23.7259641 L65.4030873,23.7259641 L65.4030873,14.2845865 L67.094307,14.2845865 Z M12.7388852,16.6813541 C13.2566228,16.6813541 13.6782636,17.0685479 13.6782636,17.5442191 C13.6782636,18.0123065 13.2481562,18.4075054 12.7388852,18.4075054 C12.2211476,18.4075054 11.7995069,18.0203116 11.7995069,17.5442191 C11.7995069,17.0601215 12.2122576,16.6813541 12.7388852,16.6813541 Z" id="life-is-on"></path>
            <path d="M151.044,34.1181785 C155.551662,29.8257623 161.602376,28.8482981 164.494171,31.7254977 C165.923347,33.1478767 166.319588,35.3189428 165.816667,37.662329 L165.816667,37.662329 L161.739536,37.662329 L161.292072,39.2789369 L165.321366,39.2789369 C165.127479,39.7933696 164.878559,40.3010611 164.608895,40.8159151 L164.608895,40.8159151 L160.922078,40.8159151 L160.441594,42.4321017 L163.594163,42.4321017 C163.006152,43.2591544 162.355064,44.0647198 161.566816,44.8108789 C157.061694,49.1024525 151.03003,50.1014041 148.172525,47.2595953 C146.703132,45.7946629 146.330598,43.4862463 146.914799,41.012672 L146.914799,41.012672 L150.331952,41.012672 L150.88779,39.3926935 L147.410947,39.3926935 C147.612454,38.8774182 147.874921,38.3718332 148.155168,37.8611924 L148.155168,37.8611924 L151.087604,37.8611924 L151.658258,36.241214 L149.203343,36.241214 C149.745634,35.5047452 150.340419,34.7842867 151.044,34.1181785 Z M189.408992,38.1691358 C191.392736,38.1691358 192.658505,39.5000882 192.658505,42.2576328 L192.658505,42.2576328 L187.400272,42.2576328 C187.630565,43.7368901 188.480197,44.5003233 189.90895,44.499902 C190.803455,44.499902 191.652663,44.1708505 192.529388,43.5995395 L192.529388,43.5995395 L192.529388,45.0295023 C191.623029,45.6290417 190.803455,45.9096414 189.537262,45.9096414 C187.214005,45.9096414 185.923259,44.0031648 185.923259,41.9399569 C185.923259,39.6829414 187.351588,38.1691358 189.408992,38.1691358 Z M233.966558,38.1697257 C234.834393,38.1697257 235.41055,38.369853 236.133182,38.6820517 L236.133182,40.2683245 C235.280163,39.6898511 234.714166,39.5200588 234.063501,39.5200588 C232.715605,39.5200588 231.78808,40.5518734 231.78808,42.0627298 C231.78808,43.599708 232.785032,44.5274564 234.313692,44.5274564 C234.947423,44.5274564 235.546017,44.3648266 236.300822,44.0328258 L236.300822,45.4813267 C235.793244,45.7151597 234.843706,45.9089673 234.063501,45.9089673 C231.83253,45.9089673 230.274661,44.3795728 230.274661,42.1929179 C230.274661,39.7269273 231.69791,38.1697257 233.966558,38.1697257 Z M209.020368,36.7703086 L209.020368,38.3110788 L211.388922,38.3110788 L211.388922,39.6348687 L209.020368,39.6348687 L209.020368,43.4604615 C209.020368,44.3363874 209.657062,44.5891799 210.087593,44.5891799 C210.621417,44.5891799 211.172175,44.4029561 211.77077,44.0359857 L211.77077,45.414126 C211.251762,45.6976749 210.45674,45.9091779 209.968636,45.9091779 C208.36166,45.9091779 207.549705,44.9165461 207.549705,43.5716902 L207.549705,39.6348687 L206.247106,39.6348687 L206.247106,39.4705536 L209.020368,36.7703086 Z M200.133442,38.1697257 C200.999584,38.1697257 201.582091,38.369853 202.296256,38.6820517 L202.296256,40.2683245 C201.447048,39.6898511 200.87978,39.5200588 200.234195,39.5200588 C198.882913,39.5200588 197.947345,40.5518734 197.947345,42.0627298 C197.947345,43.599708 198.943026,44.5274564 200.481423,44.5274564 C201.11346,44.5274564 201.716712,44.3648266 202.461356,44.0328258 L202.461356,45.4813267 C201.963939,45.7151597 201.016517,45.9089673 200.234195,45.9089673 C197.999838,45.9089673 196.448319,44.3795728 196.448319,42.1929179 C196.448319,39.7269273 197.865218,38.1697257 200.133442,38.1697257 Z M226.397386,38.3102783 L226.397386,45.7693416 L224.921644,45.7693416 L224.921644,38.3102783 L226.397386,38.3102783 Z M182.135689,34.4556143 L182.135689,45.7697629 L180.659946,45.7697629 L180.659946,34.4556143 L182.135689,34.4556143 Z M219.228138,38.168251 C219.828426,38.168251 220.392307,38.4488507 221.010375,39.0315373 L220.228054,40.3258348 C219.778473,39.8838693 219.196812,39.5784117 218.845444,39.5784117 C217.830713,39.5784117 217.032728,40.6064345 217.032728,41.8813512 L217.032728,45.7697208 L215.558678,45.7697208 L215.558678,38.3110788 L217.033151,38.3110788 L217.033151,40.0359661 L217.062785,40.0359661 C217.815896,38.7155467 218.531331,38.168251 219.228138,38.168251 Z M176.724632,34.4599118 L176.724632,35.9185244 L171.906243,35.9185244 L171.906243,39.3257456 L176.555722,39.3257456 L176.555722,40.7881501 L171.906243,40.7881501 L171.906243,44.3023868 L176.868989,44.3023868 L176.868989,45.7635273 L170.291224,45.7635273 L170.291224,34.4599118 L176.724632,34.4599118 Z M163.323653,33.8738125 L159.311292,33.8738125 C156.49358,33.8738125 154.633027,35.8097815 154.324839,37.5628973 L154.324839,37.5628973 L153.279628,41.9273594 C153.269468,42.0440653 153.188187,42.1578219 153.127227,42.2298677 C152.95874,42.4165128 152.75808,42.5108887 152.501116,42.5108887 L152.501116,42.5108887 L149.983972,42.5108887 L149.304097,45.0788389 L153.222477,45.0788389 C156.041036,45.0788389 158.203427,43.328251 158.514154,41.5768205 L158.514154,41.5768205 L159.837496,36.5816412 C159.852736,36.4885293 159.869246,36.4417627 159.910733,36.3954174 C160.017413,36.2770263 160.127057,36.2348942 160.387407,36.2348942 L160.387407,36.2348942 L162.810148,36.2348942 L163.323653,33.8738125 Z M189.442435,39.4326769 C188.312133,39.4326769 187.630565,40.100049 187.427365,41.2772193 L187.427365,41.2772193 L191.186149,41.2772193 C191.137465,40.1506075 190.489764,39.4326769 189.442435,39.4326769 Z M226.447382,35.63131 C226.591739,35.9919606 226.339432,36.5004948 225.896624,36.7604497 C225.448737,37.0204047 224.975873,36.9365618 224.841252,36.5754899 C224.706632,36.2123114 224.950896,35.7071478 225.399207,35.4467715 C225.842438,35.1838673 226.312762,35.2685528 226.447382,35.63131 Z M123.733743,12.5183255 C125.923227,12.5183255 127.898928,12.9750372 130.354689,14.0262326 L130.354689,17.8109573 C127.52597,16.5613198 125.83856,16.0763796 124.164274,16.0763796 C122.407014,16.0763796 121.280522,16.7028836 121.280522,17.6710788 C121.280522,20.5929385 131.23988,19.7696776 131.23988,26.5289271 C131.23988,30.2550882 128.097895,32.4194131 123.73332,32.4194131 C120.308547,32.4194131 118.624101,31.53801 116.681844,30.5394797 L116.681844,26.3603988 C119.482622,28.2074691 121.196279,28.860095 123.356976,28.860095 C125.231076,28.860095 126.241151,28.2074691 126.241151,27.0707456 C126.241151,23.888931 116.281793,25.053883 116.281793,18.0953488 C116.281793,14.7391074 119.196448,12.5183255 123.733743,12.5183255 Z M211.26806,12.7592367 L211.26806,32.1736988 L207.124889,32.1736988 L207.124889,31.1144983 C205.943364,32.0532011 204.856242,32.4201715 203.450349,32.4201715 C199.904926,32.4201715 197.289568,29.5244337 197.289568,25.5884548 C197.289568,21.5652626 199.904503,18.7858093 203.683183,18.7858093 C204.890955,18.7858093 206.005594,19.0693582 207.124889,19.6090702 L207.124889,19.6090702 L207.124889,12.7592367 L211.26806,12.7592367 Z M183.039168,18.7892642 C186.878385,18.7892642 190.044925,21.5088899 189.847228,26.3085763 L189.847228,26.3085763 L180.37174,26.3085763 C180.516097,28.6073026 182.115453,29.9551078 184.731235,29.9551078 C186.388588,29.9551078 187.67256,29.4807006 189.614817,28.1046669 L189.614817,28.1046669 L189.614817,30.6705105 C187.408035,32.2968378 185.098872,32.4089983 183.961338,32.4167335 L183.728356,32.4173065 C179.085228,32.4173065 176.071512,29.7313864 176.071512,25.6761738 C176.071512,21.650875 178.969234,18.7892642 183.039168,18.7892642 Z M219.977482,18.7892642 C223.815006,18.7892642 226.984508,21.5088899 226.788081,26.3085763 L226.788081,26.3085763 L217.315557,26.3085763 C217.459914,28.6073026 219.066044,29.9551078 221.668279,29.9551078 C223.333252,29.9551078 224.619764,29.4807006 226.562867,28.1046669 L226.562867,28.1046669 L226.562867,30.6705105 C224.350567,32.2968378 222.038455,32.4089983 220.90054,32.4167335 L220.667517,32.4173065 C216.029468,32.4173065 213.016176,29.7313864 213.016176,25.6761738 C213.016176,21.650875 215.909241,18.7892642 219.977482,18.7892642 Z M139.661477,18.7854723 C141.00514,18.7854723 142.722183,19.1284274 144.096325,19.6373829 L144.096325,22.7109181 C143.009627,22.1358152 141.749361,21.8206673 140.719389,21.8206673 C138.230185,21.8206673 136.628288,23.3100363 136.628288,25.6066559 C136.628288,27.9374025 138.203515,29.4718528 140.575032,29.4718528 C141.575794,29.4718528 142.466066,29.2426543 144.297832,28.560536 L144.297832,31.5316902 C142.638363,32.1312297 141.234587,32.4173065 139.832928,32.4173065 C135.195303,32.4173065 132.196404,29.7284372 132.196404,25.6378336 C132.196404,21.6226465 135.310873,18.7854723 139.661477,18.7854723 Z M195.59475,19.0314815 L195.59475,32.1775328 L191.450732,32.1775328 L191.450732,19.0314815 L195.59475,19.0314815 Z M237.256372,18.7774672 C238.084413,18.7774672 238.799001,19.0913512 240,19.9769675 L238.860385,23.620971 C237.771569,22.93801 237.056558,22.6527758 236.399967,22.6527758 C234.879774,22.6527758 233.906952,24.0789467 232.990857,26.4889016 L232.990857,32.1603008 L228.841336,32.1603008 L228.841336,19.018884 L232.990857,19.018884 L232.990857,22.7964462 L233.051394,22.7964462 C234.28118,20.0599677 235.657862,18.7774672 237.256372,18.7774672 Z M169.625108,18.7858936 C171.686321,18.7858936 174.43376,19.9500029 174.43376,23.8215197 L174.43376,23.8215197 L174.43376,32.143448 L170.287202,32.143448 L170.287202,24.1615256 C170.287202,22.3089781 169.394391,21.5371184 168.220908,21.5371184 C167.189243,21.5371184 166.416235,22.0793582 165.32615,23.7077631 L165.32615,23.7077631 L165.32615,29.8459857 C164.449425,28.7631913 162.616812,28.1080374 161.180439,27.9652097 L161.180439,27.9652097 L161.180439,19.0319449 L165.32615,19.0319449 L165.32615,20.9127209 C166.646529,19.410291 167.936005,18.7858936 169.625108,18.7858936 Z M150.156734,12.7592367 L150.156734,20.9880531 L150.213884,20.9880531 C151.41446,19.4755115 152.756852,18.7896012 154.388805,18.7896012 C156.789956,18.7896012 159.222011,20.2486351 159.222011,23.8109024 L159.222011,23.8109024 L159.222011,28.0005164 C157.880042,28.1627249 156.465259,28.5996345 155.07503,29.310824 L155.07503,29.310824 L155.07503,24.6927268 C155.07503,22.7289506 154.217355,21.8163698 152.927879,21.8163698 C151.956751,21.8163698 151.127016,22.4138027 150.156734,23.8109024 L150.156734,23.8109024 L150.156734,32.1399931 L146.010177,32.1399931 L146.010177,12.7592367 L150.156734,12.7592367 Z M204.797398,21.5370341 C202.708668,21.5370341 201.474226,23.0499971 201.474226,25.6744043 C201.474226,28.069613 202.708668,29.6672614 204.659392,29.6672614 C205.54543,29.6672614 206.262558,29.356748 207.125313,28.584467 L207.125313,28.584467 L207.125313,22.3088938 C206.520792,21.8791466 205.545853,21.5370341 204.797398,21.5370341 Z M183.324496,21.2518842 C181.694236,21.2518842 180.629551,22.3064501 180.459794,24.1316118 L180.459794,24.1316118 L186.186234,24.1316118 C186.014784,22.3367852 184.928932,21.2518842 183.324496,21.2518842 Z M220.261116,21.2518842 C218.631703,21.2518842 217.573368,22.3064501 217.401494,24.1316118 L217.401494,24.1316118 L223.135131,24.1316118 C222.963681,22.3367852 221.866399,21.2518842 220.261116,21.2518842 Z M195.788298,13.5021095 C196.177766,14.5238125 195.477571,15.9478767 194.228312,16.6801323 C192.975667,17.4128091 191.651477,17.1806614 191.26455,16.1593798 C190.872543,15.1359916 191.569351,13.710242 192.821573,12.981357 C194.070832,12.2453096 195.395444,12.4791427 195.788298,13.5021095 Z" id="SE-part"></path>
        </g>
    </g>
</svg>