<svg xmlns="http://www.w3.org/2000/svg" viewBox="0 0 167 30">
  <path d="M60.362 7.01c0-1.173-.065-1.924-.196-2.25-.132-.328-.4-.492-.81-.492-.347 0-.61.133-.796.398-.183.265-.274 1.046-.274 2.345v11.78c0 1.466.06 2.37.18 2.712.122.343.402.515.843.515.45 0 .739-.198.864-.592.126-.395.189-1.335.189-2.822V7.011m6.369 13.674a6.055 6.055 0 01-1.12 2.89c-.63.872-1.48 1.542-2.549 2.009-1.07.468-2.316.702-3.738.702-1.35 0-2.562-.223-3.637-.663-1.075-.441-1.94-1.103-2.594-1.987-.654-.882-1.044-1.843-1.168-2.881-.125-1.04-.187-2.857-.187-5.454v-4.316c0-2.534.058-4.328.179-5.382a6.026 6.026 0 011.122-2.891c.628-.872 1.477-1.542 2.547-2.01C56.656.234 57.902 0 59.324 0c1.35 0 2.562.221 3.637.663 1.075.442 1.939 1.104 2.594 1.986.654.884 1.042 1.845 1.167 2.883.124 1.039.187 2.857.187 5.453v4.316c0 2.535-.06 4.33-.178 5.384m-17.147-5.05v.984c0 2.614-.185 4.466-.553 5.56-.371 1.092-1.188 2.05-2.452 2.873-1.265.822-2.823 1.234-4.674 1.234-1.925 0-3.513-.35-4.761-1.044-1.25-.696-2.077-1.66-2.483-2.891-.405-1.23-.608-3.082-.608-5.554v-7.37c0-1.817.062-3.18.187-4.09.124-.908.497-1.784 1.116-2.625.619-.841 1.477-1.503 2.576-1.987C39.03.242 40.29 0 41.717 0c1.936 0 3.532.374 4.79 1.122 1.26.748 2.088 1.68 2.483 2.795.397 1.117.594 2.854.594 5.212v2.398h-6.548V7.134c0-1.277-.072-2.074-.215-2.39-.144-.317-.46-.476-.946-.476-.553 0-.904.193-1.052.577-.148.384-.222 1.216-.222 2.493v11.718c0 1.228.074 2.027.222 2.4.148.375.484.562 1.004.562.498 0 .824-.188.977-.563.154-.377.232-1.256.232-2.645v-3.174h6.548M25.562 6.3c0-.875-.08-1.433-.237-1.672-.157-.24-.42-.36-.787-.36-.4 0-.7.161-.905.482-.205.322-.307.81-.307 1.461 0 .84.116 1.472.348 1.897.221.425.844.94 1.868 1.543 2.932 1.74 4.78 3.166 5.543 4.278.763 1.111 1.145 2.903 1.145 5.375 0 1.798-.212 3.123-.635 3.975-.423.85-1.239 1.566-2.449 2.142-1.21.574-2.618.865-4.226.865-1.763 0-3.268-.334-4.515-.999-1.247-.664-2.064-1.51-2.449-2.54-.386-1.03-.58-2.49-.58-4.381v-1.654h6.11v3.073c0 .948.087 1.557.262 1.827.175.27.486.406.932.406.445 0 .777-.172.995-.513.216-.343.326-.852.326-1.526 0-1.482-.205-2.452-.615-2.91-.42-.455-1.451-1.219-3.093-2.292-1.642-1.083-2.73-1.869-3.263-2.358-.535-.488-.976-1.163-1.326-2.025-.351-.863-.527-1.964-.527-3.304 0-1.932.247-3.345.743-4.238.495-.894 1.295-1.593 2.4-2.096C21.425.252 22.759 0 24.322 0c1.71 0 3.166.276 4.37.827 1.203.552 2 1.246 2.392 2.083.39.838.586 2.26.586 4.269v.997h-6.108V6.3M8.363 6.155c-.659 4.838-1.081 8.37-1.268 10.598H9.37c-.324-2.851-.66-6.384-1.007-10.598m1.548 19.61l-.359-4.546H7.145l-.368 4.547H0L3.364.558h9.48l3.765 25.208H9.91m62.575-14.794V0h4.194c.738 0 1.302.035 1.691.105.546.09 1.004.26 1.373.512.37.252.666.605.891 1.06.225.454.338.952.338 1.496 0 .933-.301 1.723-.903 2.37-.602.645-1.689.968-3.261.968h-2.852v4.46h-1.471zm1.471-5.755h2.875c.95 0 1.625-.175 2.025-.524.4-.35.599-.841.599-1.475 0-.459-.118-.852-.353-1.179a1.648 1.648 0 00-.929-.647c-.248-.065-.705-.097-1.373-.097h-2.844v3.922zm8.2 1.78c0-1.471.414-2.561 1.243-3.27.693-.589 1.537-.883 2.533-.883 1.108 0 2.013.358 2.716 1.074.702.716 1.054 1.705 1.054 2.967 0 1.023-.156 1.828-.467 2.414a3.28 3.28 0 01-1.357 1.366 3.994 3.994 0 01-1.946.487c-1.127 0-2.038-.357-2.734-1.07-.695-.714-1.043-1.742-1.043-3.084zm1.403 0c0 1.019.225 1.78.675 2.287.45.507 1.016.76 1.698.76.678 0 1.242-.255 1.692-.764.45-.508.675-1.284.675-2.327 0-.983-.227-1.728-.68-2.234a2.171 2.171 0 00-1.687-.76 2.18 2.18 0 00-1.698.756c-.45.504-.675 1.265-.675 2.283zm9.223 3.975l-2.465-7.948h1.41L93.01 7.61l.478 1.707c.02-.085.16-.631.417-1.64l1.282-4.654h1.403l1.206 4.61.402 1.52.462-1.535 1.38-4.595h1.328l-2.518 7.948h-1.418l-1.282-4.76-.31-1.355-1.632 6.115h-1.425zm15.237-2.56l1.41.172c-.222.814-.634 1.445-1.235 1.894-.602.449-1.37.674-2.306.674-1.178 0-2.112-.358-2.802-1.074-.69-.716-1.036-1.72-1.036-3.013 0-1.337.35-2.375 1.047-3.113.698-.739 1.603-1.108 2.715-1.108 1.077 0 1.957.362 2.64 1.085.682.724 1.023 1.742 1.023 3.054 0 .08-.002.2-.007.359h-6.007c.05.873.3 1.542.75 2.006.45.464 1.012.696 1.685.696.5 0 .927-.13 1.281-.39.354-.259.635-.673.842-1.242zm-4.482-2.178h4.497c-.06-.668-.232-1.17-.515-1.504-.435-.519-.999-.778-1.692-.778-.627 0-1.154.207-1.581.62-.427.415-.664.969-.71 1.662zm7.585 4.738V3.024h1.228v1.205c.314-.564.603-.936.869-1.116.265-.18.557-.269.876-.269.46 0 .928.145 1.403.434l-.47 1.25a1.973 1.973 0 00-1.002-.292 1.31 1.31 0 00-.803.266 1.439 1.439 0 00-.509.737 5.183 5.183 0 00-.227 1.572v4.16h-1.365zM76.163 26.33V16.015h-3.678v-1.38h8.849v1.38H77.64V26.33h-1.477zm10.281-3.025l1.417.183c-.224.867-.637 1.54-1.242 2.019-.604.478-1.375.718-2.315.718-1.183 0-2.12-.382-2.814-1.145-.693-.763-1.039-1.834-1.039-3.211 0-1.426.35-2.532 1.05-3.319.701-.787 1.61-1.18 2.727-1.18 1.082 0 1.965.385 2.65 1.156.686.771 1.028 1.856 1.028 3.255 0 .085-.002.213-.007.383h-6.032c.051.93.302 1.644.754 2.138a2.195 2.195 0 001.69.742c.504 0 .933-.138 1.288-.415.355-.276.637-.718.845-1.324zm-4.5-2.322h4.515c-.06-.712-.233-1.247-.517-1.603-.437-.553-1.003-.83-1.699-.83-.63 0-1.158.22-1.587.662-.43.442-.667 1.032-.712 1.771zm12.912 1.947l1.348.183c-.147.974-.524 1.736-1.13 2.286-.607.55-1.352.826-2.236.826-1.106 0-1.996-.38-2.669-1.137-.673-.758-1.009-1.844-1.009-3.259 0-.915.145-1.715.434-2.401.29-.687.73-1.201 1.321-1.544a3.78 3.78 0 011.93-.515c.88 0 1.598.233 2.156.698.559.466.916 1.127 1.074 1.983l-1.333.215c-.127-.569-.351-.997-.674-1.284a1.696 1.696 0 00-1.169-.431c-.69 0-1.251.26-1.683.778-.431.518-.647 1.339-.647 2.461 0 1.138.208 1.965.624 2.481.417.516.96.774 1.63.774.538 0 .988-.173 1.348-.518.36-.346.589-.878.685-1.596zm2.518 3.103V14.338h1.371v4.196c.64-.776 1.447-1.165 2.422-1.165.599 0 1.12.124 1.56.371.443.248.759.59.949 1.025.19.437.286 1.07.286 1.9v5.368h-1.371v-5.369c0-.718-.149-1.24-.446-1.567-.297-.328-.717-.491-1.26-.491-.406 0-.788.11-1.146.331-.358.22-.613.52-.766.897-.152.378-.228.9-.228 1.564v4.635h-1.37zm8.671 0v-8.472h1.234v1.204c.594-.93 1.452-1.396 2.574-1.396.487 0 .935.092 1.344.276.409.183.715.424.918.722.203.297.345.651.426 1.06.051.267.076.732.076 1.397v5.21h-1.37V20.88c0-.585-.054-1.023-.16-1.313a1.365 1.365 0 00-.568-.694 1.742 1.742 0 00-.955-.26c-.584 0-1.088.195-1.512.583-.424.389-.636 1.125-.636 2.21v4.627h-1.37zm8.161-4.236c0-1.569.416-2.731 1.25-3.486.695-.628 1.542-.942 2.543-.942 1.111 0 2.02.382 2.726 1.145s1.058 1.818 1.058 3.163c0 1.09-.156 1.948-.468 2.573a3.403 3.403 0 01-1.363 1.456 3.827 3.827 0 01-1.953.519c-1.133 0-2.048-.38-2.746-1.141-.698-.76-1.047-1.856-1.047-3.287zm1.409 0c0 1.085.226 1.897.678 2.437.452.54 1.02.81 1.706.81.68 0 1.246-.271 1.698-.814.452-.542.678-1.37.678-2.48 0-1.049-.228-1.842-.682-2.382-.454-.54-1.02-.81-1.694-.81-.686 0-1.254.269-1.706.806-.452.537-.678 1.348-.678 2.433zm7.742 4.236V14.338h1.37v11.695h-1.37zm2.982-4.236c0-1.569.417-2.731 1.25-3.486.695-.628 1.543-.942 2.543-.942 1.112 0 2.02.382 2.726 1.145s1.059 1.818 1.059 3.163c0 1.09-.156 1.948-.469 2.573a3.403 3.403 0 01-1.363 1.456 3.827 3.827 0 01-1.953.519c-1.132 0-2.047-.38-2.745-1.141-.699-.76-1.048-1.856-1.048-3.287zm1.41 0c0 1.085.225 1.897.677 2.437.452.54 1.02.81 1.706.81.68 0 1.246-.271 1.698-.814.452-.542.678-1.37.678-2.48 0-1.049-.227-1.842-.682-2.382-.454-.54-1.019-.81-1.694-.81-.685 0-1.254.269-1.706.806-.452.537-.678 1.348-.678 2.433zm7.52 4.938l1.333.208c.056.43.21.744.465.941.34.266.804.4 1.393.4.635 0 1.125-.134 1.47-.4s.579-.638.7-1.117c.072-.292.105-.906.1-1.843-.6.74-1.346 1.11-2.24 1.11-1.111 0-1.972-.42-2.58-1.261-.61-.84-.915-1.848-.915-3.024 0-.808.14-1.554.42-2.238.278-.683.683-1.21 1.214-1.583.53-.373 1.154-.559 1.87-.559.954 0 1.74.405 2.36 1.213V17.56h1.264v7.324c0 1.319-.128 2.253-.384 2.804-.257.55-.663.985-1.219 1.304-.556.32-1.24.479-2.052.479-.965 0-1.744-.228-2.338-.682-.594-.455-.88-1.14-.86-2.055zm1.135-5.09c0 1.112.21 1.923.632 2.434.422.51.95.766 1.584.766.63 0 1.158-.254 1.584-.762.427-.508.64-1.305.64-2.39 0-1.037-.22-1.819-.659-2.345-.439-.527-.968-.79-1.588-.79-.609 0-1.127.26-1.553.778-.427.518-.64 1.288-.64 2.31zm7.795-5.656v-1.651h1.371v1.651h-1.37zm0 10.044v-8.472h1.371v8.472h-1.37zm8.991-2.728l1.417.183c-.224.867-.637 1.54-1.241 2.019-.605.478-1.376.718-2.316.718-1.182 0-2.12-.382-2.813-1.145-.693-.763-1.04-1.834-1.04-3.211 0-1.426.35-2.532 1.051-3.319.7-.787 1.61-1.18 2.726-1.18 1.082 0 1.965.385 2.65 1.156.686.771 1.029 1.856 1.029 3.255 0 .085-.003.213-.008.383h-6.031c.05.93.302 1.644.753 2.138a2.195 2.195 0 001.691.742c.503 0 .932-.138 1.287-.415.355-.276.637-.718.845-1.324zm-4.5-2.322h4.516c-.061-.712-.234-1.247-.518-1.603-.437-.553-1.003-.83-1.698-.83-.63 0-1.16.22-1.588.662-.43.442-.667 1.032-.712 1.771zm7.087 2.521l1.355-.223c.076.57.288 1.005.636 1.308.348.304.834.455 1.459.455.63 0 1.096-.134 1.4-.403.305-.268.458-.584.458-.945a.883.883 0 00-.404-.766c-.188-.128-.655-.29-1.401-.487-1.005-.266-1.702-.496-2.09-.69a2.057 2.057 0 01-.884-.806c-.2-.343-.3-.722-.3-1.136a2.295 2.295 0 01.921-1.85c.213-.166.504-.306.872-.42a3.97 3.97 0 011.184-.172c.634 0 1.192.096 1.671.287.48.192.834.451 1.063.778.228.327.386.765.472 1.313l-1.34.191c-.061-.436-.238-.776-.53-1.021-.292-.245-.704-.367-1.237-.367-.63 0-1.079.11-1.348.327-.27.218-.404.473-.404.766 0 .186.056.354.168.503.112.154.287.282.525.383.137.053.541.175 1.211.367.97.27 1.646.493 2.03.666.383.173.684.424.902.754.218.33.328.739.328 1.228 0 .479-.134.93-.4 1.352-.267.423-.651.75-1.154.982-.503.231-1.071.347-1.706.347-1.05 0-1.852-.229-2.402-.686-.551-.458-.903-1.136-1.055-2.035zm7.53-6.097v-1.622h-.58v-.33h1.552v.33h-.578v1.622h-.394zm1.22 0v-1.952h.59l.355 1.331.35-1.331h.591v1.952h-.366V15.87l-.387 1.537h-.38l-.386-1.537v1.537h-.366z" fill="#FFF"/>
</svg>
