<?xml version="1.0" encoding="UTF-8"?>
<svg width="68px" height="15px" viewBox="0 0 68 15" version="1.1" xmlns="http://www.w3.org/2000/svg" xmlns:xlink="http://www.w3.org/1999/xlink">
    <title>D767834E-EEDA-4763-BCE4-8DEFE6E93542</title>
    <defs>
        <filter id="filter-1">
            <feColorMatrix in="SourceGraphic" type="matrix" values="0 0 0 0 0.239216 0 0 0 0 0.803922 0 0 0 0 0.345098 0 0 0 1.000000 0"></feColorMatrix>
        </filter>
    </defs>
    <g id="Symbols" stroke="none" stroke-width="1" fill="none" fill-rule="evenodd">
        <g id="Brand_Selector/Horizontal" transform="translate(-216.000000, -28.000000)">
            <g id="Logo" transform="translate(200.000000, 0.000000)" filter="url(#filter-1)">
                <g transform="translate(16.000000, 28.000000)">
                    <g id="Group" transform="translate(0.000000, -0.000000)">
                        <polygon id="Fill-29" fill="#4E2583" points="12.7293746 0.292934152 10.6378645 14.4972194 5.79033851 14.4972194 7.83471762 0.292934152"></polygon>
                        <polygon id="Fill-30" fill="#E03A3E" points="2.02477971 0.292934152 -1.05958127e-15 14.4967144 4.82885953 14.4967144 6.92037016 0.292934152"></polygon>
                        <path d="M48.8329882,14.5830797 L53.6310493,0.507584508 L57.7608724,0.507584508 L58.6624338,14.4558047 L55.1905825,14.4558047 L55.1826495,12.5537518 L52.9562782,12.5537518 L52.253975,14.5820696 L48.8329882,14.5830797 Z M53.8713724,9.58804409 L54.9712586,9.58703399 L54.9479263,5.07129955 L53.8713724,9.58804409 Z M32.4135581,14.4704515 L35.9689392,14.4810577 L36.6073118,9.86986713 C36.7454393,9.86986713 36.8845,9.89057456 37.0221607,9.89057456 C39.9139702,9.89057456 42.3307334,8.76126213 42.5299915,5.1980694 C42.7633149,1.01516902 40.4212151,0.507584508 39.2494653,0.379804527 L34.5624661,0.379804527 L32.4135581,14.4704515 Z M37.7361301,3.55107132 L37.8411257,3.55107132 C38.5345626,3.55107132 39.1318704,3.67733612 39.1318704,4.81876994 C39.1318704,5.96070882 38.4258339,6.64809438 37.5485382,6.64809438 C37.4878741,6.64809438 37.3796121,6.64809438 37.2564173,6.62839712 L37.7361301,3.55107132 Z M59.2126103,14.4815628 L61.3848506,0.507584508 L64.8837674,0.507584508 L63.2668366,11.285043 L66.1955111,11.285043 L65.7293311,14.4563098 L59.2126103,14.4815628 Z M42.1375416,9.96986885 L41.6158306,13.7825608 C42.230871,14.3492373 43.2145621,14.7452037 44.3363808,14.7345975 C47.0989291,14.7088394 49.6762187,13.0613363 49.6762187,10.0173444 C49.6762187,7.73599196 48.4512712,7.26780205 47.6369728,6.21374347 C47.0531977,5.44403325 46.7461442,5.00059126 46.7461442,4.31169049 C46.7461442,3.72329651 47.2165241,3.42430146 47.4507807,3.42430146 C48.0042236,3.42430146 49.1540411,3.66066917 49.8311454,4.28896283 L50.2623269,0.761124233 C49.4167632,0.19242756 48.0368889,-1.08756541e-15 47.0989291,-1.08756541e-15 C44.7750287,-1.08756541e-15 42.9985047,2.66267216 42.9985047,4.43846035 C42.9985047,5.87838417 43.4086872,6.74658094 44.2864496,7.86225675 C44.9635539,8.71277646 45.8711817,9.11025805 45.8711817,9.92138318 C45.8711817,10.6719011 45.4871315,11.1582732 44.8725578,11.1582732 C44.2267188,11.1582732 42.860844,10.7612967 42.1375416,9.96986885 Z M27.8842855,14.4810577 L29.8759335,0.253539724 L33.6259062,0.253539724 L31.3986016,14.4810577 L27.8842855,14.4810577 Z M20.7142592,14.4558047 L27.1819822,14.4558047 L27.7666905,10.9052385 L24.9556109,10.9052385 L26.478279,0.330813784 L22.8972324,0.330813784 L20.7142592,14.4558047 Z M21.3232331,4.05764571 C20.9849143,3.8349146 20.6778608,3.76521642 20.3241426,3.76521642 C18.9391353,3.76521642 17.3399371,5.32281904 17.3399371,8.24206129 C17.3399371,10.2713892 17.9260453,11.2097892 19.2447889,11.1789806 C19.5210437,11.1729199 19.800565,11.1582732 20.1986147,11.1582732 L19.800565,14.202265 C19.0968619,14.5820696 18.2774303,14.5820696 18.2774303,14.5820696 C16.051059,14.5820696 13.7290251,12.888606 13.7290251,9.27945292 C13.7290251,3.68440695 16.7556955,0.083839829 20.0777532,0.083839829 C20.6923269,0.083839829 21.2616358,0.225256409 21.7996794,0.489402376 L21.3232331,4.05764571 Z" id="Fill-31" fill="#000000"></path>
                        <path d="M66.0410511,1.43401462 C66.0410511,0.895116443 66.4461004,0.497634841 66.9244133,0.497634841 C67.3961931,0.497634841 67.8007757,0.895116443 67.8007757,1.43401462 C67.8007757,1.97897351 67.3961931,2.37645511 66.9244133,2.37645511 C66.4461004,2.37645511 66.0410511,1.97897351 66.0410511,1.43401462 Z M66.9244133,2.21988675 C67.3154632,2.21988675 67.6262499,1.88654767 67.6262499,1.43401462 C67.6262499,0.989562516 67.3154632,0.654203197 66.9244133,0.654203197 C66.5249637,0.654203197 66.2160436,0.989562516 66.2160436,1.43401462 C66.2160436,1.88654767 66.5249637,2.21988675 66.9244133,2.21988675 Z M66.7396212,1.97897351 L66.5874944,1.97897351 L66.5874944,0.895116443 L66.969678,0.895116443 C67.2062678,0.895116443 67.3229295,0.989562516 67.3229295,1.20320256 C67.3229295,1.3971453 67.210001,1.48149019 67.0625407,1.5011875 L67.3476618,1.97897351 L67.1787357,1.97897351 L66.9141471,1.50876338 L66.7396212,1.50876338 L66.7396212,1.97897351 Z M66.9216134,1.3698721 C67.0499412,1.3698721 67.1647363,1.36027598 67.1647363,1.19310138 C67.1647363,1.05926068 67.0513412,1.03400773 66.9463456,1.03400773 L66.7396212,1.03400773 L66.7396212,1.3698721 L66.9216134,1.3698721 Z" id="Fill-33" fill="#333333"></path>
                    </g>
                </g>
            </g>
        </g>
    </g>
</svg>