<svg xmlns="http://www.w3.org/2000/svg" viewBox="0 0 240 50">
  <g fill="#FFF" fill-rule="evenodd">
    <path d="M100.882 50h1V0h-1zM68.612 16.038c3.586.988 6.23 4.255 6.23 8.133 0 4.657-3.808 8.446-8.487 8.446-4.68 0-8.487-3.789-8.487-8.446 0-3.822 2.566-7.055 6.073-8.093v1.636c-2.633.978-4.517 3.5-4.517 6.457 0 3.804 3.11 6.899 6.93 6.899 3.822 0 6.932-3.095 6.932-6.899 0-3.016-1.959-5.58-4.674-6.514zm-42.053 4.53c.15 0 .29.017.436.025l.072.004c.26.018.51.049.75.092a5.58 5.58 0 01.733.182 4.805 4.805 0 01.832.354c.076.042.16.074.232.12a4.5 4.5 0 011.59 1.722 6.198 6.198 0 01.693 2.6v.045c0 .95-.633.95-1.365.951H22.48c.026 1.376.392 2.528 1.058 3.333.724.874 1.756 1.317 3.07 1.317.617 0 1.189-.119 1.698-.353.854-.394 1.503-1.095 1.93-2.085a.77.77 0 01.701-.488c.427 0 .725.33.725.623 0 .172-.243 1.035-1.014 1.85-.677.716-1.935 1.569-4.089 1.569-.93 0-1.771-.153-2.497-.456a4.7 4.7 0 01-1.755-1.254c-.899-1.033-1.374-2.491-1.374-4.22 0-1.78.503-3.268 1.454-4.302.98-1.065 2.422-1.628 4.172-1.628zm12.885-4.323c.82 0 .82.684.82 1.234v13.715c0 .55 0 1.235-.796 1.235-.845 0-.845-.715-.845-1.235V17.39c.003-.487.048-1.145.82-1.145zm37.908 4.302c.17 0 .298.043.405.108.01.005.019.01.028.017.025.018.059.027.081.05.212.21.212.58.211.905v.844c.697-.81 1.658-1.903 3.961-1.903 1.75 0 2.756.656 3.291 1.205.932.967.932 2.392.932 3V31.4c-.002.482-.046 1.03-.75 1.03a.756.756 0 01-.404-.108c-.01-.006-.02-.01-.028-.017-.027-.018-.06-.027-.082-.05-.212-.21-.211-.58-.21-.905v-6.225c0-.857-.061-1.73-.497-2.308-.493-.668-1.379-1.066-2.37-1.066-.669 0-1.37.19-1.975.536a3.622 3.622 0 00-1.44 1.466c-.366.716-.427 1.655-.427 3.49v4.23c-.003.292-.026.598-.211.782-.023.023-.056.032-.082.05-.009.006-.019.01-.028.017a.756.756 0 01-.405.108c-.75 0-.75-.599-.75-1.126V21.58c.004-.462.048-1.034.75-1.034zm-64.613.022c.725 0 .725.677.725 1.125v9.63c0 .492 0 1.104-.725 1.104-.75 0-.75-.612-.75-1.104V21.6c.004-.482.047-1.03.75-1.03zm7.139-4.324c.689 0 1.47.139 1.741.263.336.154.34.478.34.491 0 .279-.232.58-.607.58-.087 0-.32-.024-.546-.047a7.9 7.9 0 00-.477-.04c-1.782 0-1.915.928-1.915 2.346v.993h1.582c.329 0 .94 0 .94.491 0 .342-.316.515-.94.515h-1.581v9.58c-.003.473-.046 1.011-.726 1.011-.749 0-.749-.612-.749-1.104v-9.487h-1.25c-.28 0-.939 0-.939-.515 0-.491.707-.491.94-.491h1.25v-1.19c0-1.344.204-1.844.358-2.102.227-.397.602-.73 1.084-.96.449-.215.98-.334 1.495-.334zm27.155 4.323c.949 0 1.774.137 2.453.406.55.22 1.006.525 1.356.91.58.64.699 1.322.699 1.47 0 .005-.008.579-.678.579-.32 0-.487-.095-.701-.685-.358-.965-1.53-1.564-3.059-1.564-1.474 0-2.961.557-2.961 1.8 0 .618.33 1.064 1.04 1.405.634.304 1.488.486 2.392.679.935.199 1.886.413 2.692.769l.109.05c.106.051.22.093.32.15 1 .559 1.487 1.36 1.488 2.45 0 .356-.081 1.27-.827 2.074-.842.907-2.233 1.366-4.134 1.366-.894 0-1.63-.099-2.248-.3a3.758 3.758 0 01-1.232-.663c-.747-.6-1.289-1.504-1.289-2.15 0-.174.084-.335.237-.454a.814.814 0 01.489-.169c.422 0 .573.337.733.694l.015.034c.574 1.256 1.715 1.893 3.391 1.893 2.309 0 3.342-1.069 3.342-2.129 0-1.373-1.531-1.755-2.354-1.96l-.063-.015-.607-.152-.8-.195c-1.508-.365-2.266-.548-2.998-1.03-.718-.476-1.146-1.254-1.146-2.085 0-.168.034-1.046.722-1.853.75-.879 1.967-1.325 3.619-1.325zM.797 16.245c.844 0 .844.743.844 1.234v13.375h7.774c.514.002 1.099.04 1.099.645 0 .667-.666.667-1.201.667H1.367C.153 32.166 0 32.025 0 30.91V17.38c.003-.529.047-1.135.797-1.135zm25.713 5.439c-2.78 0-3.825 2.422-4.007 3.864h7.848c-.097-.958-.394-3.864-3.84-3.864zm40.584-7.4v9.442c0 .372-.294.832-.829.832a.845.845 0 01-.862-.832v-9.441h1.691zM12.74 16.682c.518 0 .94.388.94.863 0 .468-.43.864-.94.864-.518 0-.94-.388-.94-.864 0-.484.413-.863.94-.863zM151.044 34.118c4.508-4.292 10.558-5.27 13.45-2.393 1.43 1.423 1.826 3.594 1.323 5.937h-4.077l-.448 1.617h4.03a13.96 13.96 0 01-.713 1.537h-3.687l-.48 1.616h3.152c-.588.827-1.239 1.633-2.027 2.379-4.505 4.291-10.537 5.29-13.394 2.449-1.47-1.465-1.842-3.774-1.258-6.247h3.417l.556-1.62h-3.477c.201-.516.464-1.021.744-1.532h2.933l.57-1.62h-2.455c.543-.736 1.137-1.457 1.841-2.123zm38.365 4.051c1.984 0 3.25 1.331 3.25 4.089H187.4c.23 1.479 1.08 2.242 2.509 2.242.894 0 1.744-.33 2.62-.9v1.43c-.906.599-1.726.88-2.992.88-2.323 0-3.614-1.907-3.614-3.97 0-2.257 1.429-3.77 3.486-3.77zm44.558 0c.867 0 1.444.2 2.166.513v1.586c-.853-.578-1.419-.748-2.07-.748-1.347 0-2.275 1.032-2.275 2.543 0 1.537.997 2.464 2.526 2.464.633 0 1.232-.162 1.987-.494v1.448c-.508.234-1.457.428-2.237.428-2.231 0-3.79-1.53-3.79-3.716 0-2.466 1.424-4.023 3.693-4.023zM209.02 36.77v1.541h2.369v1.324h-2.369v3.825c0 .876.637 1.13 1.068 1.13.533 0 1.084-.187 1.683-.554v1.378c-.52.284-1.314.495-1.802.495-1.607 0-2.42-.992-2.42-2.337v-3.937h-1.302v-.164l2.773-2.7zm-8.887 1.4c.867 0 1.45.2 2.163.512v1.586c-.849-.578-1.416-.748-2.062-.748-1.351 0-2.287 1.032-2.287 2.543 0 1.537.996 2.464 2.534 2.464.632 0 1.236-.162 1.98-.494v1.448c-.497.234-1.444.428-2.227.428-2.234 0-3.786-1.53-3.786-3.716 0-2.466 1.417-4.023 3.685-4.023zm26.264.14v7.46h-1.475v-7.46h1.475zm-44.261-3.854V45.77h-1.476V34.456h1.476zm37.092 3.712c.6 0 1.164.28 1.782.864l-.782 1.294c-.45-.442-1.031-.748-1.383-.748-1.014 0-1.812 1.028-1.812 2.303v3.889h-1.474V38.31h1.474v1.725h.03c.753-1.32 1.468-1.868 2.165-1.868zm-42.503-3.708v1.459h-4.819v3.407h4.65v1.462h-4.65v3.514h4.963v1.462h-6.578V34.46h6.434zm-13.401-.586h-4.013c-2.817 0-4.678 1.936-4.986 3.689l-1.045 4.364c-.01.117-.092.23-.153.303a.799.799 0 01-.626.28h-2.517l-.68 2.569h3.918c2.819 0 4.981-1.75 5.292-3.502l1.323-4.995c.016-.093.032-.14.074-.187.106-.118.216-.16.476-.16h2.423l.514-2.361zm26.118 5.559c-1.13 0-1.811.667-2.015 1.844h3.76c-.05-1.126-.697-1.844-1.745-1.844zm37.005-3.802c.145.361-.108.87-.55 1.13-.448.26-.921.176-1.056-.186-.134-.363.11-.868.558-1.128.443-.263.914-.178 1.048.184zM123.734 12.518c2.19 0 4.165.457 6.62 1.508v3.785c-2.828-1.25-4.515-1.735-6.19-1.735-1.757 0-2.883.627-2.883 1.595 0 2.922 9.959 2.099 9.959 8.858 0 3.726-3.142 5.89-7.507 5.89-3.424 0-5.109-.881-7.051-1.88V26.36c2.8 1.847 4.514 2.5 6.675 2.5 1.874 0 2.884-.653 2.884-1.79 0-3.181-9.96-2.016-9.96-8.975 0-3.356 2.915-5.577 7.453-5.577zm87.534.241v19.415h-4.143v-1.06c-1.182.94-2.269 1.306-3.675 1.306-3.545 0-6.16-2.896-6.16-6.832 0-4.023 2.615-6.802 6.393-6.802 1.208 0 2.323.283 3.442.823v-6.85h4.143zm-28.229 6.03c3.84 0 7.006 2.72 6.808 7.52h-9.475c.144 2.298 1.743 3.646 4.36 3.646 1.657 0 2.94-.474 4.883-1.85v2.566c-2.207 1.626-4.516 1.738-5.654 1.746h-.233c-4.643 0-7.656-2.686-7.656-6.74 0-4.026 2.897-6.888 6.967-6.888zm36.938 0c3.838 0 7.008 2.72 6.811 7.52h-9.472c.144 2.298 1.75 3.646 4.352 3.646 1.665 0 2.952-.474 4.895-1.85v2.566c-2.212 1.626-4.525 1.738-5.662 1.746h-.233c-4.639 0-7.652-2.686-7.652-6.74 0-4.026 2.893-6.888 6.961-6.888zm-80.316-.004c1.344 0 3.061.343 4.435.852v3.074c-1.086-.575-2.347-.89-3.377-.89-2.489 0-4.09 1.489-4.09 3.786 0 2.33 1.575 3.865 3.946 3.865 1 0 1.891-.23 3.723-.911v2.97c-1.66.6-3.063.886-4.465.886-4.638 0-7.637-2.689-7.637-6.78 0-4.014 3.115-6.852 7.465-6.852zm55.934.246v13.147h-4.144V19.03h4.144zm41.661-.254c.828 0 1.543.314 2.744 1.2l-1.14 3.644c-1.088-.683-1.803-.968-2.46-.968-1.52 0-2.493 1.426-3.41 3.836v5.671h-4.149V19.02h4.15v3.777h.06c1.23-2.736 2.607-4.019 4.205-4.019zm-67.63.009c2.06 0 4.808 1.164 4.808 5.036v8.321h-4.147v-7.981c0-1.853-.893-2.625-2.066-2.625-1.032 0-1.805.542-2.895 2.17v6.139c-.877-1.083-2.71-1.738-4.146-1.88v-8.934h4.146v1.88c1.32-1.502 2.61-2.126 4.3-2.126zm-19.47-6.027v8.23h.058c1.2-1.513 2.543-2.2 4.175-2.2 2.401 0 4.833 1.46 4.833 5.022V28c-1.342.162-2.757.599-4.147 1.31v-4.618c0-1.964-.858-2.877-2.147-2.877-.971 0-1.801.598-2.771 1.995v8.329h-4.147V12.76h4.147zm54.641 8.778c-2.088 0-3.323 1.513-3.323 4.137 0 2.396 1.235 3.993 3.185 3.993.886 0 1.604-.31 2.466-1.083V22.31c-.604-.43-1.58-.772-2.328-.772zm-21.473-.285c-1.63 0-2.694 1.054-2.864 2.88h5.726c-.171-1.795-1.257-2.88-2.862-2.88zm36.937 0c-1.63 0-2.688 1.054-2.86 2.88h5.734c-.171-1.795-1.269-2.88-2.874-2.88zm-24.473-7.75c.39 1.022-.31 2.446-1.56 3.178-1.252.733-2.577.5-2.963-.52-.392-1.024.304-2.45 1.557-3.179 1.249-.736 2.573-.502 2.966.521z"/>
  </g>
</svg>