<svg id="Layer_1" xmlns="http://www.w3.org/2000/svg" viewBox="0 0 170 35" fill="currentColor">
	<g id="logo" transform="translate(8 8)">
		<path id="Fill-45" d="M63 27h.8V-8H63z"/>
		<g id="Group-3" transform="translate(0 11)">
			<path id="Fill-1" d="M-1.4 3.9h-5.4v-9.5c0-.3 0-.9-.6-.9s-.6.5-.6.9v9.5c0 .8.1.9 1 .9h5.6c.4 0 .8 0 .8-.5 0-.4-.4-.4-.8-.4"/>
			<path id="Fill-3" d="M1-3.4c-.5 0-.5.4-.5.8v6.8c0 .4 0 .8.5.8s.5-.4.5-.8v-6.8c0-.3 0-.8-.5-.8"/>
			<path id="Fill-7" d="M6.1-3.2H5v-.7c0-1 .1-1.7 1.4-1.7h.7c.3 0 .4-.2.4-.4 0 0 0-.2-.2-.3-.2-.1-.8-.2-1.3-.2-.3 0-.7.1-1 .3-.4.1-.6.4-.8.6-.1.2-.2.6-.2 1.5v.8h-.9c-.2 0-.7 0-.7.3 0 .4.5.4.7.4H4v6.7c0 .5 0 .9.5.9s.5-.4.5-.8v-6.7h1.1c.4 0 .7-.1.7-.4 0-.3-.5-.3-.7-.3M5.1-5"/>
			<path id="Fill-9" d="M14.5.2s0-1-.5-1.9c-.3-.5-.7-.9-1.1-1.2-.1 0-.1-.1-.2-.1 0 0-.1 0-.1-.1-.1-.1-.2-.1-.4-.2h-.1c-.1 0-.3-.1-.4-.1h-.1c-.2 0-.3-.1-.5-.1h-.4c-1.2.1-2.2.5-2.9 1.2-.7.7-1 1.8-1 3.1 0 1.2.3 2.3 1 3 .3.4.7.7 1.2.9.5.2 1.1.3 1.7.3 1.5 0 2.4-.6 2.9-1.1.5-.6.7-1.2.7-1.3 0-.2-.2-.4-.5-.4-.2 0-.4.1-.5.3-.3.7-.7 1.2-1.3 1.5-.4.2-.8.3-1.2.3-.9 0-1.7-.3-2.2-.9-.5-.7-.7-1.5-.7-2.5h5.7c.5 0 .9 0 .9-.7zM7.9.1c.1-1 .9-2.7 2.8-2.7 2.4 0 2.6 2.1 2.7 2.7H7.9z"/>
			<path id="Fill-11" d="M19.8-6.5c-.6 0-.6.5-.6.9v9.7c0 .4 0 .9.6.9s.6-.5.6-.9v-9.7c0-.4 0-.9-.6-.9"/>
			<path id="Fill-13" d="M38.8-.6c.4 0 .6-.3.6-.6v-6.7h-1.2v6.7c0 .3.2.6.6.6"/>
			<path id="Fill-15" d="M27.8.8c-.1 0-.2-.1-.2-.1h-.1c-.6-.3-1.2-.4-1.9-.5-.6-.1-1.2-.3-1.7-.5s-.7-.6-.7-1c0-.9 1.1-1.3 2.1-1.3 1.1 0 1.9.4 2.2 1.1.1.4.2.5.4.5.5 0 .5-.4.5-.4 0-.1-.1-.6-.5-1-.2-.3-.6-.5-1-.6-.5-.2-1.1-.3-1.7-.3-1.2 0-2 .3-2.6.9-.5.6-.5 1.2-.5 1.3 0 .6.3 1.1.8 1.5.5.3 1.1.5 2.1.7.3.1.6.1 1 .2.6.1 1.7.4 1.7 1.4 0 .8-.7 1.5-2.4 1.5-1.2 0-2-.5-2.4-1.3-.1-.3-.2-.5-.5-.5-.1 0-.2 0-.3.1-.1.1-.1.2-.1.3 0 .5.4 1.1.9 1.5.3.2.5.4.9.5.4.1 1 .2 1.6.2 1.3 0 2.3-.3 2.9-1 .5-.6.6-1.2.6-1.5-.1-.7-.4-1.3-1.1-1.7"/>
			<path id="Fill-17" d="M52.2-2.6c-.4-.4-1.1-.9-2.3-.9-1.6 0-2.3.8-2.8 1.3v-.6c0-.2 0-.5-.1-.6h-.1c-.1 0-.2-.1-.3-.1-.5 0-.5.5-.5.8v6.8c0 .4 0 .8.5.8.1 0 .2 0 .3-.1h.1c.1-.1.1-.4.1-.6V1.3c0-1.3 0-2 .3-2.5.2-.4.6-.8 1-1 .4-.2.9-.4 1.4-.4.7 0 1.3.3 1.7.8.3.4.4 1 .4 1.6v4.4c0 .2 0 .5.1.6h.1c.1.2.1.2.3.2.5 0 .5-.4.5-.8V-.4c0-.5 0-1.5-.7-2.2"/>
			<path id="Fill-19" d="M40.4-6.6v1.1c1.9.7 3.3 2.5 3.3 4.6 0 2.7-2.2 4.9-4.9 4.9s-4.9-2.2-4.9-4.9c0-2.1 1.3-3.9 3.2-4.6v-1.2c-2.5.7-4.3 3-4.3 5.7 0 3.3 2.7 6 6 6s6-2.7 6-6c0-2.6-1.8-4.9-4.4-5.6"/>
			<path id="Fill-5" d="M1-5.6c-.4 0-.7.3-.7.6s.3.6.7.6c.4 0 .7-.3.7-.6s-.3-.6-.7-.6"/>
		</g>
		<g id="Group-2" transform="translate(82 7)">
			<path id="Fill-21" d="M2-3.4c-2-.9-3.2-1.2-4.4-1.2-1.2 0-2 .4-2 1.1 0 2.1 7 1.5 7 6.3C2.6 5.5.4 7-2.7 7c-2.4 0-3.6-.6-5-1.3v-3C-5.7 4-4.5 4.5-3 4.5c1.3 0 2-.5 2-1.3 0-2.3-7-1.4-7-6.4 0-2.4 2.1-4 5.3-4 1.5 0 2.9.3 4.7 1.1v2.7z"/>
			<path id="Fill-23" d="M11.9 6.4c-1.2.4-2.2.6-3.2.6-3.3 0-5.4-1.9-5.4-4.8 0-2.8 2.2-4.9 5.3-4.9.9 0 2.2.2 3.1.6V.1c-.8-.4-1.7-.6-2.4-.6C7.5-.5 6.4.6 6.4 2.2c0 1.7 1.1 2.7 2.8 2.7.7 0 1.3-.2 2.6-.6v2.1z"/>
			<path id="Fill-25" d="M39.2-2.7c-2.9 0-4.9 2-4.9 4.9 0 2.9 2.1 4.8 5.4 4.8.7 0 2.5 0 4.2-1.2V3.9c-1.4 1-2.3 1.3-3.4 1.3-1.8 0-3-1-3.1-2.6H44c.1-3.3-2.1-5.3-4.8-5.3zm-1.8 3.8c.1-1.3.9-2 2-2s1.9.8 2 2h-4z"/>
			<path id="Fill-27" d="M45.1 6.8h3v-9.3h-3z"/>
			<path id="Fill-29" d="M56.2-7v4.9c-.8-.4-1.6-.6-2.4-.6-2.7 0-4.5 2-4.5 4.8s1.8 4.8 4.3 4.8c1 0 1.8-.3 2.6-.9v.8h2.9V-7h-2.9zm0 11.3c-.6.5-1.1.7-1.7.7-1.4 0-2.2-1.1-2.2-2.8 0-1.9.9-2.9 2.3-2.9.5 0 1.2.2 1.6.5v4.5z"/>
			<path id="Fill-30" d="M65.3-2.7c-2.9 0-4.9 2-4.9 4.9 0 2.9 2.1 4.8 5.4 4.8.7 0 2.5 0 4.2-1.2V3.9c-1.4 1-2.3 1.3-3.5 1.3-1.8 0-3-1-3.1-2.6h6.7c.1-3.3-2.1-5.3-4.8-5.3zm-1.8 3.8c.1-1.3.9-2 2-2s1.9.8 2 2h-4z"/>
			<path id="Fill-31" d="M74.5.2c.9-1.9 1.9-2.9 3-2.9.6 0 1.1.2 1.9.9L78.6.8c-.8-.5-1.3-.7-1.7-.7-1.1 0-1.8 1-2.4 2.7v4h-2.9v-9.3h2.9V.2z"/>
			<path id="Fill-32" d="M48.2-6.4c.3.7-.2 1.7-1.1 2.3-.9.5-1.8.4-2.1-.4-.3-.7.2-1.7 1.1-2.3.9-.5 1.8-.4 2.1.4"/>
			<path id="Fill-33" d="M22.4.9c0-2.5-1.7-3.6-3.4-3.6-1.2 0-2.1.5-2.9 1.6V-7h-2.9V6.8H16V.9c.7-1 1.3-1.4 2-1.4.9 0 1.5.6 1.5 2v3.3c1-.5 2-.8 2.9-.9v-3z"/>
			<path id="Fill-34" d="M29.7-2.7c-1.2 0-2.1.4-3 1.5v-1.3h-2.9v6.3c1 .1 2.3.6 2.9 1.3V.8c.8-1.2 1.3-1.5 2-1.5.8 0 1.5.5 1.5 1.9v5.7h2.9v-6c0-2.8-1.9-3.6-3.4-3.6"/>
			<path id="Fill-35" d="M34.7 9.5h-3.4v2.4h3.3v1h-3.3v2.5h3.5v1.1h-4.6V8.4h4.5z"/>
			<path id="Fill-36" d="M37.5 16.5h1.1V8.4h-1.1z"/>
			<path id="Fill-37" d="M42.3 14H46c0-2-.9-2.9-2.3-2.9-1.5 0-2.5 1.1-2.5 2.7 0 1.5.9 2.8 2.6 2.8.9 0 1.5-.2 2.1-.6v-1c-.6.4-1.2.6-1.8.6-1.1 0-1.7-.6-1.8-1.6m1.4-2c.7 0 1.2.5 1.2 1.3h-2.7c.2-.9.7-1.3 1.5-1.3"/>
			<path id="Fill-38" d="M52.8 12.6c-.6-.4-1-.5-1.5-.5-1 0-1.6.7-1.6 1.8s.7 1.7 1.8 1.7c.4 0 .9-.1 1.4-.4v1c-.4.2-1 .3-1.6.3-1.6 0-2.7-1.1-2.7-2.6 0-1.7 1-2.9 2.6-2.9.6 0 1 .1 1.5.4v1.2z"/>
			<path id="Fill-39" d="M57.5 11.2h1.7v.9h-1.7v2.7c0 .6.4.8.8.8s.8-.1 1.2-.4v1c-.4.2-.9.4-1.3.4-1.1 0-1.7-.7-1.7-1.7v-2.8h-.9V12l2-1.9v1.1z"/>
			<path id="Fill-40" d="M63.2 11.2v1.2c.5-.9 1-1.3 1.5-1.3.4 0 .8.2 1.3.6l-.6.9c-.3-.3-.7-.5-1-.5-.7 0-1.3.7-1.3 1.6v2.8h-1v-5.3h1.1z"/>
			<path id="Fill-41" d="M76.7 12.6c-.6-.4-1-.5-1.5-.5-1 0-1.6.7-1.6 1.8s.7 1.7 1.8 1.7c.4 0 .9-.1 1.4-.4v1c-.4.2-1 .3-1.6.3-1.6 0-2.7-1.1-2.7-2.6 0-1.7 1-2.9 2.6-2.9.6 0 1 .1 1.5.4v1.2z"/>
			<path id="Fill-42" d="M68.8 16.5h1v-5.3h-1z"/>
			<path id="Fill-43" d="M69.8 9.3c.1.3-.1.6-.4.8-.3.2-.6.1-.7-.1-.1-.3.1-.6.4-.8.3-.2.6-.2.7.1"/>
			<path id="Fill-44" d="M23.9 11.9l.3-1.1H27c.4-1.7.1-3.2-.9-4.2-2-2-6.3-1.3-9.5 1.7-.5.5-.9 1-1.3 1.5H17l-.4 1.1h-2.1c-.2.4-.4.7-.5 1.1h2.5l-.4 1.1h-2.4c-.4 1.8-.1 3.4.9 4.4 2 2 6.3 1.3 9.5-1.7.6-.5 1-1.1 1.4-1.7h-2.2l.3-1.1h2.6c.2-.4.4-.7.5-1.1h-2.8zm-.7-2.2c-.2 0-.3 0-.3.1 0 0 0 .1-.1.1l-.9 3.5c-.2 1.2-1.7 2.5-3.7 2.5h-2.8l.5-1.8h1.8c.2 0 .3-.1.4-.2 0-.1.1-.1.1-.2l.7-3.1c.3-1.2 1.6-2.6 3.6-2.6h2.8l-.4 1.7h-1.7z"/>
		</g>
	</g>
</svg>
