<?xml version="1.0" encoding="UTF-8"?>
<svg width="170px" height="50px" viewBox="0 0 170 50" version="1.1" xmlns="http://www.w3.org/2000/svg" xmlns:xlink="http://www.w3.org/1999/xlink">
    <title>Logos / Text / GreenStruxure/Transparent</title>
    <g id="Logos-/-Text-/-GreenStruxure/Transparent" stroke="none" stroke-width="1" fill="none" fill-rule="evenodd">
        <path d="M9.032,33.288 C11.24,33.288 13.448,32.568 14.72,31.848 C16.256,30.984 16.592,30.72 16.592,29.304 L16.592,26.256 C16.592,24.528 16.112,24 14.36,24 L10.4,24 C9.296,24 8.72,24.408 8.72,25.344 C8.72,25.704 8.864,26.28 9.368,26.496 C9.68,26.64 10.088,26.688 10.832,26.688 L13.328,26.688 L13.328,29.304 C11.72,30.168 10.4,30.528 8.936,30.528 C5.552,30.528 3.704,28.2 3.704,24.264 C3.704,20.736 5.576,18.288 8.84,18.288 C10.736,18.288 11.96,19.056 12.824,20.616 C13.136,21.192 13.544,21.672 14.384,21.672 C15.344,21.672 16.04,20.904 16.04,20.136 C16.04,18.84 14.408,15.528 9.128,15.528 C3.464,15.528 0.176,18.984 0.176,24.408 C0.176,29.856 3.464,33.288 9.032,33.288 Z M20.616,33.288 C21.648,33.288 22.2,32.808 22.2,30.912 L22.2,28.464 C22.2,24.432 22.92,23.04 24.48,23.04 C25.32,23.04 25.968,23.448 26.544,23.448 C27.096,23.448 27.792,22.968 27.792,22.104 C27.792,20.904 26.04,20.28 24.864,20.28 C23.76,20.28 22.92,20.736 22.128,22.272 C22.128,20.928 21.576,20.28 20.592,20.28 C19.512,20.28 19.008,21 19.008,22.368 L19.008,30.768 C19.008,32.496 19.344,33.288 20.616,33.288 Z M34.24,33.288 C35.728,33.288 36.952,32.928 37.888,32.352 C39.064,31.632 39.712,30.504 39.712,29.832 C39.712,29.28 39.208,28.896 38.656,28.896 C38.2,28.896 37.744,29.16 37.336,29.616 C36.448,30.576 35.392,31.176 34.168,31.176 C32.344,31.176 30.952,29.784 30.952,27.576 L37.36,27.576 C39.304,27.576 39.88,26.904 39.88,25.68 C39.88,24.48 39.28,22.848 38.2,21.816 C37.192,20.856 35.776,20.28 33.976,20.28 C30.016,20.28 27.712,22.896 27.712,26.76 C27.712,28.248 28.192,29.976 29.128,31.128 C30.208,32.448 31.792,33.288 34.24,33.288 Z M36.784,25.752 L30.952,25.752 C31.24,23.544 32.344,22.488 33.856,22.488 C35.608,22.488 36.664,23.808 36.784,25.752 Z M47.864,33.288 C49.352,33.288 50.576,32.928 51.512,32.352 C52.688,31.632 53.336,30.504 53.336,29.832 C53.336,29.28 52.832,28.896 52.28,28.896 C51.824,28.896 51.368,29.16 50.96,29.616 C50.072,30.576 49.016,31.176 47.792,31.176 C45.968,31.176 44.576,29.784 44.576,27.576 L50.984,27.576 C52.928,27.576 53.504,26.904 53.504,25.68 C53.504,24.48 52.904,22.848 51.824,21.816 C50.816,20.856 49.4,20.28 47.6,20.28 C43.64,20.28 41.336,22.896 41.336,26.76 C41.336,28.248 41.816,29.976 42.752,31.128 C43.832,32.448 45.416,33.288 47.864,33.288 Z M50.408,25.752 L44.576,25.752 C44.864,23.544 45.968,22.488 47.48,22.488 C49.232,22.488 50.288,23.808 50.408,25.752 Z M65.256,33.288 C66.624,33.288 66.84,32.28 66.84,30.768 L66.84,25.272 C66.84,24.168 66.744,23.28 66.432,22.584 C65.688,20.952 64.128,20.28 62.568,20.28 C60.912,20.28 59.568,20.952 58.44,22.44 L58.44,22.296 C58.44,20.88 57.936,20.28 56.952,20.28 C55.896,20.28 55.44,20.76 55.44,22.608 L55.44,30.768 C55.44,32.4 55.8,33.288 57.048,33.288 C58.2,33.288 58.632,32.544 58.632,30.912 L58.632,27.096 C58.632,26.064 58.68,25.296 58.896,24.672 C59.328,23.352 60.48,22.776 61.488,22.776 C62.568,22.776 63.264,23.304 63.528,24.456 C63.624,24.864 63.648,25.344 63.648,25.944 L63.648,30.768 C63.648,32.424 64.008,33.288 65.256,33.288 Z M75.904,33.288 C80.104,33.288 82.696,31.056 82.696,27.84 C82.696,26.856 82.408,25.68 81.64,24.792 C80.776,23.784 79.216,23.04 76.528,22.464 C73.648,21.84 72.616,21.216 72.616,20.016 C72.616,18.84 73.864,18 75.616,18 C77.104,18 78.04,18.48 78.664,19.728 C79.288,20.976 79.576,21.336 80.392,21.336 C81.352,21.336 81.976,20.472 81.976,19.728 C81.976,18.888 81.328,17.496 80.08,16.656 C79.072,15.96 77.656,15.528 75.832,15.528 C71.824,15.528 69.376,17.424 69.376,20.328 C69.376,22.368 70.648,23.808 72.112,24.456 C73.456,25.056 74.296,25.176 76.384,25.704 C78.28,26.184 79.288,26.904 79.288,28.224 C79.288,29.736 77.8,30.744 75.784,30.744 C74.056,30.744 72.928,30 72.376,28.584 C71.8,27.168 71.44,26.712 70.624,26.712 C69.592,26.712 69.04,27.528 69.04,28.224 C69.04,29.28 69.664,30.552 70.552,31.464 C71.656,32.592 73.504,33.288 75.904,33.288 Z M88.484,33.288 C90.428,33.288 91.82,32.832 91.82,31.728 C91.82,31.176 91.436,30.648 90.74,30.648 C90.284,30.648 89.924,30.84 89.3,30.84 C88.484,30.84 88.22,30.456 88.22,29.208 L88.22,22.872 L88.868,22.872 C90.284,22.872 90.788,22.464 90.788,21.696 C90.788,21.096 90.38,20.568 89.372,20.568 L88.22,20.568 L88.22,17.928 C88.22,17.256 88.076,16.728 87.764,16.416 C87.476,16.128 87.02,15.936 86.612,15.936 C86.108,15.936 85.628,16.2 85.364,16.536 C85.052,16.944 85.028,17.544 85.028,18.072 L85.028,20.568 L84.644,20.568 C83.66,20.568 83.18,21 83.18,21.696 C83.18,22.464 83.708,22.872 84.596,22.872 L85.028,22.872 L85.028,29.16 C85.028,30.864 85.22,31.608 85.676,32.232 C86.252,33.048 87.38,33.288 88.484,33.288 Z M94.348,33.288 C95.38,33.288 95.932,32.808 95.932,30.912 L95.932,28.464 C95.932,24.432 96.652,23.04 98.212,23.04 C99.052,23.04 99.7,23.448 100.276,23.448 C100.828,23.448 101.524,22.968 101.524,22.104 C101.524,20.904 99.772,20.28 98.596,20.28 C97.492,20.28 96.652,20.736 95.86,22.272 C95.86,20.928 95.308,20.28 94.324,20.28 C93.244,20.28 92.74,21 92.74,22.368 L92.74,30.768 C92.74,32.496 93.076,33.288 94.348,33.288 Z M112.436,33.288 C113.468,33.288 113.924,32.76 113.924,31.032 L113.924,22.8 C113.924,21.072 113.564,20.28 112.34,20.28 C111.308,20.28 110.732,20.856 110.732,22.56 L110.73123,26.246484 C110.726612,27.4648163 110.694286,28.3405714 110.468,29.04 C110.18,29.952 109.076,30.768 107.9,30.768 C106.292,30.768 105.74,29.592 105.74,27.504 L105.74,22.872 C105.74,21.144 105.38,20.28 104.132,20.28 C103.004,20.28 102.548,20.76 102.548,22.776 L102.548,28.656 C102.548,30.096 102.86,31.2 103.46,31.944 C104.204,32.88 105.644,33.288 106.724,33.288 C108.476,33.288 109.772,32.64 110.948,31.08 C110.948,32.688 111.452,33.288 112.436,33.288 Z M125.34,33.288 C125.94,33.288 126.708,32.832 126.708,32.04 C126.708,31.752 126.588,31.464 125.94,30.504 L123.132,26.448 L125.724,22.968 C126.18,22.368 126.396,21.96 126.396,21.48 C126.396,20.88 125.82,20.28 124.956,20.28 C124.092,20.28 123.684,20.832 123.132,21.6 L121.092,24.432 L119.052,21.6 C118.572,20.928 118.116,20.28 117.276,20.28 C116.388,20.28 115.812,20.808 115.812,21.552 C115.812,21.888 116.004,22.344 116.532,23.064 L119.052,26.448 L116.1,30.672 C115.62,31.344 115.5,31.608 115.5,32.064 C115.5,32.664 116.076,33.288 116.94,33.288 C117.732,33.288 118.116,32.856 118.74,31.968 L121.092,28.584 L123.396,31.896 C124.212,33.072 124.692,33.288 125.34,33.288 Z M138.172,33.288 C139.204,33.288 139.66,32.76 139.66,31.032 L139.66,22.8 C139.66,21.072 139.3,20.28 138.076,20.28 C137.044,20.28 136.468,20.856 136.468,22.56 L136.468,25.608 C136.468,27.168 136.468,28.224 136.204,29.04 C135.916,29.952 134.812,30.768 133.636,30.768 C132.028,30.768 131.476,29.592 131.476,27.504 L131.476,22.872 C131.476,21.144 131.116,20.28 129.868,20.28 C128.74,20.28 128.284,20.76 128.284,22.776 L128.284,28.656 C128.284,30.096 128.596,31.2 129.196,31.944 C129.94,32.88 131.38,33.288 132.46,33.288 C134.212,33.288 135.508,32.64 136.684,31.08 C136.684,32.688 137.188,33.288 138.172,33.288 Z M143.828,33.288 C144.86,33.288 145.412,32.808 145.412,30.912 L145.412,28.464 C145.412,24.432 146.132,23.04 147.692,23.04 C148.532,23.04 149.18,23.448 149.756,23.448 C150.308,23.448 151.004,22.968 151.004,22.104 C151.004,20.904 149.252,20.28 148.076,20.28 C146.972,20.28 146.132,20.736 145.34,22.272 C145.34,20.928 144.788,20.28 143.804,20.28 C142.724,20.28 142.22,21 142.22,22.368 L142.22,30.768 C142.22,32.496 142.556,33.288 143.828,33.288 Z M157.452,33.288 C158.94,33.288 160.164,32.928 161.1,32.352 C162.276,31.632 162.924,30.504 162.924,29.832 C162.924,29.28 162.42,28.896 161.868,28.896 C161.412,28.896 160.956,29.16 160.548,29.616 C159.66,30.576 158.604,31.176 157.38,31.176 C155.556,31.176 154.164,29.784 154.164,27.576 L160.572,27.576 C162.516,27.576 163.092,26.904 163.092,25.68 C163.092,24.48 162.492,22.848 161.412,21.816 C160.404,20.856 158.988,20.28 157.188,20.28 C153.228,20.28 150.924,22.896 150.924,26.76 C150.924,28.248 151.404,29.976 152.34,31.128 C153.42,32.448 155.004,33.288 157.452,33.288 Z M159.996,25.752 L154.164,25.752 C154.452,23.544 155.556,22.488 157.068,22.488 C158.82,22.488 159.876,23.808 159.996,25.752 Z" id="GreenStruxure" fill="#3DCD58" fill-rule="nonzero"></path>
        <path d="M164.48,22.472 L164.48,19.832 L165.44,19.832 L165.44,19.272 L162.848,19.272 L162.848,19.832 L163.832,19.832 L163.832,22.472 L164.48,22.472 Z M166.44,22.472 L166.44,19.92 L167.128,22.472 L167.712,22.472 L168.408,19.92 L168.408,22.472 L169.024,22.472 L169.024,19.272 L168.008,19.272 L167.424,21.48 L166.84,19.272 L165.824,19.272 L165.824,22.472 L166.44,22.472 Z" id="™" fill="#3DCD58" fill-rule="nonzero"></path>
    </g>
</svg>