<?xml version="1.0" encoding="UTF-8"?>
<svg width="121px" height="50px" viewBox="0 0 121 50" version="1.1" xmlns="http://www.w3.org/2000/svg" xmlns:xlink="http://www.w3.org/1999/xlink">
    <title>Logos / Text / LifeSF6/Transparent</title>
    <g id="Logos-/-Text-/-LifeSF6/Transparent" stroke="none" stroke-width="1" fill="none" fill-rule="evenodd">
        <g id="outline" transform="translate(-1.000000, 10.000000)" fill-rule="nonzero">
            <path d="M13.224,22.88 C13.728,22.736 14.088,22.136 14.088,21.632 C14.088,21.08 13.728,20.72 13.392,20.504 C13.08,20.312 12.48,20.312 11.88,20.312 L5.256,20.312 L5.256,7.616 C5.256,7.136 5.232,6.752 5.112,6.464 C4.824,5.84 4.08,5.528 3.528,5.528 C2.808,5.528 2.136,6.032 1.944,6.584 C1.82057143,6.95428571 1.80293878,7.41273469 1.80041983,7.94423324 L1.8,20.336 C1.8,21.32 1.824,21.992 2.208,22.376 C2.664,22.832 2.832,23 4.224,23 L11.88,23 C12.384,23 12.84,23 13.224,22.88 Z M17.128,8.792 C17.968,8.792 18.664,8.096 18.664,7.232 C18.664,6.392 17.968,5.672 17.128,5.672 C16.264,5.672 15.568,6.392 15.568,7.232 C15.568,8.096 16.264,8.792 17.128,8.792 Z M17.128,23.288 C18.376,23.288 18.712,22.424 18.712,20.768 L18.712,12.776 C18.712,12.248 18.664,11.72 18.592,11.384 C18.4,10.616 17.896,10.28 17.104,10.28 C15.856,10.28 15.52,11.12 15.52,12.824 L15.52,20.768 C15.52,22.664 16.048,23.288 17.128,23.288 Z M23.48,23.288 C24.512,23.288 25.064,22.616 25.064,21.152 L25.064,12.872 L26.12,12.872 C27.152,12.872 27.68,12.536 27.68,11.696 C27.68,11 27.248,10.568 25.928,10.568 L25.064,10.568 L25.064,9.536 C25.064,8.24 25.616,7.832 26.552,7.832 C26.96,7.832 27.392,7.976 27.8,7.976 C28.544,7.976 28.856,7.376 28.856,6.896 C28.856,5.936 27.968,5.528 25.832,5.528 C22.52,5.528 21.872,7.184 21.872,9.56 L21.872,10.568 L21.152,10.568 C20.072,10.568 19.52,11.024 19.52,11.696 C19.52,12.488 20,12.872 20.864,12.872 L21.872,12.872 L21.872,20.84 C21.872,22.712 22.4,23.288 23.48,23.288 Z M34.368,23.288 C35.856,23.288 37.08,22.928 38.016,22.352 C39.192,21.632 39.84,20.504 39.84,19.832 C39.84,19.28 39.336,18.896 38.784,18.896 C38.328,18.896 37.872,19.16 37.464,19.616 C36.576,20.576 35.52,21.176 34.296,21.176 C32.472,21.176 31.08,19.784 31.08,17.576 L37.488,17.576 C39.432,17.576 40.008,16.904 40.008,15.68 C40.008,14.48 39.408,12.848 38.328,11.816 C37.32,10.856 35.904,10.28 34.104,10.28 C30.144,10.28 27.84,12.896 27.84,16.76 C27.84,18.248 28.32,19.976 29.256,21.128 C30.336,22.448 31.92,23.288 34.368,23.288 Z M36.912,15.752 L31.08,15.752 C31.368,13.544 32.472,12.488 33.984,12.488 C35.736,12.488 36.792,13.808 36.912,15.752 Z" id="Life" fill="#3DCD58"></path>
            <path d="M81.744,23.288 C82.776,23.288 83.328,22.616 83.328,21.152 L83.328,12.872 L84.384,12.872 C85.416,12.872 85.944,12.536 85.944,11.696 C85.944,11 85.512,10.568 84.192,10.568 L83.328,10.568 L83.328,9.536 C83.328,8.24 83.88,7.832 84.816,7.832 C85.224,7.832 85.656,7.976 86.064,7.976 C86.808,7.976 87.12,7.376 87.12,6.896 C87.12,5.936 86.232,5.528 84.096,5.528 C80.784,5.528 80.136,7.184 80.136,9.56 L80.136,10.568 L79.416,10.568 C78.336,10.568 77.784,11.024 77.784,11.696 C77.784,12.488 78.264,12.872 79.128,12.872 L80.136,12.872 L80.136,20.84 C80.136,22.712 80.664,23.288 81.744,23.288 Z M88.6,23.288 C89.632,23.288 90.184,22.808 90.184,20.912 L90.184,18.464 C90.184,14.432 90.904,13.04 92.464,13.04 C93.304,13.04 93.952,13.448 94.528,13.448 C95.08,13.448 95.776,12.968 95.776,12.104 C95.776,10.904 94.024,10.28 92.848,10.28 C91.744,10.28 90.904,10.736 90.112,12.272 C90.112,10.928 89.56,10.28 88.576,10.28 C87.496,10.28 86.992,11 86.992,12.368 L86.992,20.768 C86.992,22.496 87.328,23.288 88.6,23.288 Z M102.224,23.288 C103.712,23.288 104.936,22.928 105.872,22.352 C107.048,21.632 107.696,20.504 107.696,19.832 C107.696,19.28 107.192,18.896 106.64,18.896 C106.184,18.896 105.728,19.16 105.32,19.616 C104.432,20.576 103.376,21.176 102.152,21.176 C100.328,21.176 98.936,19.784 98.936,17.576 L105.344,17.576 C107.288,17.576 107.864,16.904 107.864,15.68 C107.864,14.48 107.264,12.848 106.184,11.816 C105.176,10.856 103.76,10.28 101.96,10.28 C98,10.28 95.696,12.896 95.696,16.76 C95.696,18.248 96.176,19.976 97.112,21.128 C98.192,22.448 99.776,23.288 102.224,23.288 Z M104.768,15.752 L98.936,15.752 C99.224,13.544 100.328,12.488 101.84,12.488 C103.592,12.488 104.648,13.808 104.768,15.752 Z M115.848,23.288 C117.336,23.288 118.56,22.928 119.496,22.352 C120.672,21.632 121.32,20.504 121.32,19.832 C121.32,19.28 120.816,18.896 120.264,18.896 C119.808,18.896 119.352,19.16 118.944,19.616 C118.056,20.576 117,21.176 115.776,21.176 C113.952,21.176 112.56,19.784 112.56,17.576 L118.968,17.576 C120.912,17.576 121.488,16.904 121.488,15.68 C121.488,14.48 120.888,12.848 119.808,11.816 C118.8,10.856 117.384,10.28 115.584,10.28 C111.624,10.28 109.32,12.896 109.32,16.76 C109.32,18.248 109.8,19.976 110.736,21.128 C111.816,22.448 113.4,23.288 115.848,23.288 Z M118.392,15.752 L112.56,15.752 C112.848,13.544 113.952,12.488 115.464,12.488 C117.216,12.488 118.272,13.808 118.392,15.752 Z" id="free" fill="#3DCD58"></path>
            <path d="M48.136,23.288 C52.336,23.288 54.928,21.056 54.928,17.84 C54.928,16.856 54.64,15.68 53.872,14.792 C53.008,13.784 51.448,13.04 48.76,12.464 C45.88,11.84 44.848,11.216 44.848,10.016 C44.848,8.84 46.096,8 47.848,8 C49.336,8 50.272,8.48 50.896,9.728 C51.52,10.976 51.808,11.336 52.624,11.336 C53.584,11.336 54.208,10.472 54.208,9.728 C54.208,8.888 53.56,7.496 52.312,6.656 C51.304,5.96 49.888,5.528 48.064,5.528 C44.056,5.528 41.608,7.424 41.608,10.328 C41.608,12.368 42.88,13.808 44.344,14.456 C45.688,15.056 46.528,15.176 48.616,15.704 C50.512,16.184 51.52,16.904 51.52,18.224 C51.52,19.736 50.032,20.744 48.016,20.744 C46.288,20.744 45.16,20 44.608,18.584 C44.032,17.168 43.672,16.712 42.856,16.712 C41.824,16.712 41.272,17.528 41.272,18.224 C41.272,19.28 41.896,20.552 42.784,21.464 C43.888,22.592 45.736,23.288 48.136,23.288 Z M58.904,23.288 C60.368,23.288 60.632,22.184 60.632,21.128 L60.632,15.584 L65.936,15.584 C66.392,15.584 66.848,15.536 67.136,15.44 C67.736,15.224 67.976,14.72 67.976,14.216 C67.976,13.928 67.784,13.304 67.28,13.064 C66.992,12.92 66.56,12.896 65.96,12.896 L60.632,12.896 L60.632,8.504 L67.088,8.504 C67.616,8.504 68.168,8.504 68.48,8.336 C68.984,8.072 69.152,7.52 69.152,7.16 C69.152,6.824 68.984,6.224 68.432,5.96 C68.12,5.816 67.712,5.816 67.088,5.816 L59.84,5.816 C58.424,5.816 58.112,5.888 57.632,6.392 C57.344,6.68 57.176,7.04 57.176,7.976 L57.176,20.6 C57.176,21.584 57.248,22.184 57.512,22.616 C57.848,23.144 58.328,23.288 58.904,23.288 Z" id="SF" fill="#9FA0A4"></path>
            <path d="M71.635,27.18 C73.96,27.18 75.355,25.485 75.355,23.52 C75.355,21.645 74.065,20.04 72.13,20.04 C71.11,20.04 70.36,20.43 69.715,21.195 C69.79,18.615 70.6,17.64 71.785,17.64 C72.505,17.64 72.865,17.94 73.09,18.465 C73.315,19.005 73.54,19.305 74.125,19.305 C74.62,19.305 74.92,18.87 74.92,18.525 C74.92,17.535 73.885,16.2 71.785,16.2 C70.795,16.2 69.715,16.59 68.995,17.4 C68.155,18.36 67.69,19.905 67.69,22.02 C67.69,25.275 69.115,27.18 71.635,27.18 Z M71.695,25.74 C70.615,25.74 69.88,24.66 69.88,23.445 C69.88,22.125 70.81,21.42 71.68,21.42 C72.58,21.42 73.36,22.125 73.36,23.55 C73.36,24.81 72.7,25.74 71.695,25.74 Z" id="6" fill="#9FA0A4"></path>
        </g>
    </g>
</svg>