<?xml version="1.0" encoding="UTF-8"?>
<svg width="66px" height="20px" viewBox="0 0 66 20" version="1.1" xmlns="http://www.w3.org/2000/svg" xmlns:xlink="http://www.w3.org/1999/xlink">
    <title>Logo</title>
    <g id="Symbols" stroke="none" stroke-width="1" fill="none" fill-rule="evenodd">
        <g id="Brand_item/SE/Square" transform="translate(-17.000000, -25.000000)" fill="#3DCD58">
            <g id="Logo" transform="translate(17.000000, 25.000000)">
                <path d="M18.5446081,11.8852937 C20.9493121,9.52339673 24.177189,8.98554819 25.7198762,10.5687239 C26.4822992,11.3513863 26.6936819,12.5460128 26.4253885,13.8354584 L26.4253885,13.8354584 L24.25036,13.8354584 L24.0116511,14.7249949 L26.1611601,14.7249949 C26.0577272,15.0080609 25.9249355,15.2874176 25.7810778,15.5707154 L25.7810778,15.5707154 L23.8142702,15.5707154 L23.5579461,16.4600202 L25.2397484,16.4600202 C24.9260619,16.9151049 24.5787258,17.3583663 24.1582188,17.7689395 C21.7548698,20.1303728 18.5371555,20.6800448 17.0127611,19.1163428 C16.2288836,18.3102655 16.0301478,17.040062 16.3418017,15.6789806 L16.3418017,15.6789806 L18.1647516,15.6789806 L18.4612746,14.7875894 L16.6064818,14.7875894 C16.7139798,14.5040597 16.8539983,14.2258622 17.0035018,13.9448827 L17.0035018,13.9448827 L18.5678693,13.9448827 L18.8722965,13.0534915 L17.5626723,13.0534915 C17.8519685,12.6482504 18.1692683,12.2518189 18.5446081,11.8852937 Z M62.7813372,14.1146527 C63.2443014,14.1146527 63.5516645,14.2247726 63.9371669,14.3965596 L63.9371669,15.2694043 C63.4821069,14.9511 63.1801639,14.857672 62.8330537,14.857672 C62.1139912,14.857672 61.619184,15.4254267 61.619184,16.2567737 C61.619184,17.1024942 62.1510283,17.6129866 62.9665229,17.6129866 C63.3045997,17.6129866 63.6239321,17.5234997 64.026598,17.3408167 L64.026598,18.1378526 C63.7558204,18.266519 63.2492698,18.3731613 62.8330537,18.3731613 C61.6428968,18.3731613 60.8118196,17.5316138 60.8118196,16.3284095 C60.8118196,14.9715011 61.5710809,14.1146527 62.7813372,14.1146527 Z M49.4732836,13.3446252 L49.4732836,14.1924321 L50.7368372,14.1924321 L50.7368372,14.920846 L49.4732836,14.920846 L49.4732836,17.0258739 C49.4732836,17.5078511 49.8129412,17.6469499 50.0426167,17.6469499 C50.3273961,17.6469499 50.621209,17.5444805 50.9405414,17.3425554 L50.9405414,18.1008755 C50.6636662,18.256898 50.2395458,18.3732773 49.9791567,18.3732773 C49.1218824,18.3732773 48.6887286,17.8270828 48.6887286,17.0870774 L48.6887286,14.920846 L47.9938306,14.920846 L47.9938306,14.8304318 L49.4732836,13.3446252 Z M44.7323718,14.1146527 C45.1944327,14.1146527 45.5051833,14.2247726 45.886169,14.3965596 L45.886169,15.2694043 C45.4331415,14.9511 45.130521,14.857672 44.7861208,14.857672 C44.0652516,14.857672 43.5661536,15.4254267 43.5661536,16.2567737 C43.5661536,17.1024942 44.0973204,17.6129866 44.9180091,17.6129866 C45.2551826,17.6129866 45.5769992,17.5234997 45.9742451,17.3408167 L45.9742451,18.1378526 C45.7088875,18.266519 45.2034661,18.3731613 44.7861208,18.3731613 C43.5941573,18.3731613 42.7664676,17.5316138 42.7664676,16.3284095 C42.7664676,14.9715011 43.5223414,14.1146527 44.7323718,14.1146527 Z M39.0111953,14.1143282 C40.0694638,14.1143282 40.7447141,14.8466832 40.7447141,16.3640188 L40.7447141,16.3640188 L37.9396025,16.3640188 C38.0624574,17.1779784 38.5157107,17.5980567 39.2779079,17.5978248 C39.7550998,17.5978248 40.2081272,17.4167646 40.675834,17.1024014 L40.675834,17.1024014 L40.675834,17.8892368 C40.1923187,18.2191326 39.7550998,18.3735323 39.0796237,18.3735323 C37.8402346,18.3735323 37.15166,17.3244958 37.15166,16.189218 C37.15166,14.9472979 37.9136313,14.1143282 39.0111953,14.1143282 Z M58.7434083,14.1919917 L58.7434083,18.2963325 L57.9561433,18.2963325 L57.9561433,14.1919917 L58.7434083,14.1919917 Z M54.9188269,14.1138413 C55.2390627,14.1138413 55.5398765,14.268241 55.8695974,14.5888636 L55.4522521,15.3010493 C55.212414,15.0578583 54.9021151,14.8897806 54.714671,14.8897806 C54.1733416,14.8897806 53.7476404,15.4554489 53.7476404,16.1569703 L53.7476404,18.2965411 L52.9612787,18.2965411 L52.9612787,14.1924321 L53.7478662,14.1924321 L53.7478662,15.1415494 L53.7636747,15.1415494 C54.1654373,14.4149902 54.5471005,14.1138413 54.9188269,14.1138413 Z M35.1311034,12.0709674 L35.1311034,18.2965643 L34.3438384,18.2965643 L34.3438384,12.0709674 L35.1311034,12.0709674 Z M32.244465,12.0733321 L32.244465,12.8759319 L29.6739972,12.8759319 L29.6739972,14.7507514 L32.1543563,14.7507514 L32.1543563,15.5554377 L29.6739972,15.5554377 L29.6739972,17.4891423 L32.3214751,17.4891423 L32.3214751,18.2931332 L28.8124321,18.2931332 L28.8124321,12.0733321 L32.244465,12.0733321 Z M25.0954391,11.7508316 L22.9549635,11.7508316 C21.4517977,11.7508316 20.4592475,12.8160963 20.2948388,13.7807462 L20.2948388,13.7807462 L19.7372492,16.1822863 C19.7318291,16.2465036 19.6884685,16.309098 19.6559481,16.3487411 C19.5660653,16.4514424 19.4590189,16.5033726 19.3219364,16.5033726 L19.3219364,16.5033726 L17.9791143,16.5033726 L17.6164213,17.9163842 L19.7067613,17.9163842 C21.2103787,17.9163842 22.3639501,16.9531253 22.5297139,15.9894027 L22.5297139,15.9894027 L23.2356779,13.2408111 C23.243808,13.1895764 23.2526156,13.1638432 23.2747475,13.1383417 C23.3316583,13.0731971 23.3901498,13.050014 23.5290391,13.050014 L23.5290391,13.050014 L24.8214997,13.050014 L25.0954391,11.7508316 Z M39.0290364,14.8095902 C38.4260537,14.8095902 38.0624574,15.1768109 37.954056,15.8245475 L37.954056,15.8245475 L39.9592557,15.8245475 C39.9332846,15.2046306 39.5877552,14.8095902 39.0290364,14.8095902 Z M58.7700796,12.7178925 C58.8470897,12.9163401 58.7124913,13.1961604 58.4762667,13.3392003 C58.237332,13.4822402 57.9850729,13.4361058 57.913257,13.2374264 C57.8414411,13.0375879 57.9717486,12.7596222 58.2109091,12.6163504 C58.4473596,12.4716877 58.6982637,12.5182858 58.7700796,12.7178925 Z M50.6723609,0.13256112 L50.6723609,10.815346 L48.4621019,10.815346 L48.4621019,10.2325222 C47.8317931,10.7490423 47.2518457,10.9509673 46.5018436,10.9509673 C44.6104654,10.9509673 43.2152493,9.35759101 43.2152493,7.19182329 C43.2152493,4.97806649 44.6102396,3.4486756 46.6260536,3.4486756 C47.2703643,3.4486756 47.864991,3.60469805 48.4621019,3.9016739 L48.4621019,3.9016739 L48.4621019,0.13256112 L50.6723609,0.13256112 Z M3.9753948,-7.10542736e-15 C5.14341968,-7.10542736e-15 6.19739727,0.251305096 7.50747313,0.829724115 L7.50747313,2.91226441 C5.99843557,2.22465286 5.09825244,1.95781507 4.20507023,1.95781507 C3.26762412,1.95781507 2.66667397,2.30254817 2.66667397,2.83529643 C2.66667397,4.44304629 7.97969664,3.99004798 7.97969664,7.70931705 C7.97969664,9.7596328 6.30354029,10.95055 3.97516897,10.95055 C2.14815403,10.95055 1.24955175,10.465559 0.213415218,9.9161189 L0.213415218,7.61658454 C1.70754758,8.63293282 2.62173256,8.99203946 3.77440058,8.99203946 C4.77417748,8.99203946 5.31302267,8.63293282 5.31302267,8.00745206 C5.31302267,6.25666231 7.54951657e-15,6.89767577 7.54951657e-15,3.06875052 C7.54951657e-15,1.22198262 1.55488231,-7.10542736e-15 3.9753948,-7.10542736e-15 Z M55.3185796,3.45057662 C57.3657849,3.45057662 59.0566206,4.94704747 58.9518326,7.58806929 L58.9518326,7.58806929 L53.8985215,7.58806929 C53.9755317,8.8529407 54.8323543,9.59456893 56.2205694,9.59456893 C57.1087832,9.59456893 57.7950995,9.33352692 58.8316877,8.57636599 L58.8316877,8.57636599 L58.8316877,9.98821843 C57.564069,10.9493909 56.235023,10.9493909 55.6866926,10.9493909 C53.2124311,10.9493909 51.604929,9.47146653 51.604929,7.24009056 C51.604929,5.0251746 53.1482936,3.45057662 55.3185796,3.45057662 Z M35.613083,3.45057662 C37.6611916,3.45057662 39.3504465,4.94704747 39.244981,7.58806929 L39.244981,7.58806929 L34.1900891,7.58806929 C34.2670992,8.8529407 35.1203084,9.59456893 36.5157504,9.59456893 C37.3998991,9.59456893 38.0848604,9.33352692 39.1209969,8.57636599 L39.1209969,8.57636599 L39.1209969,9.98821843 C37.8565399,10.9493909 36.5290747,10.9493909 35.9807444,10.9493909 C33.5037728,10.9493909 31.8960449,9.47146653 31.8960449,7.24009056 C31.8960449,5.0251746 33.4418937,3.45057662 35.613083,3.45057662 Z M12.4723693,3.44849014 C13.1891734,3.44849014 14.1051651,3.63720079 14.8382294,3.91725297 L14.8382294,5.60846208 C14.2585079,5.2920124 13.5861935,5.11860261 13.036734,5.11860261 C11.7088171,5.11860261 10.8542528,5.93812614 10.8542528,7.2018384 C10.8542528,8.48432898 11.6945894,9.32865847 12.9597238,9.32865847 C13.4936006,9.32865847 13.9685342,9.20254225 14.9457275,8.82720743 L14.9457275,10.4620815 C14.0604495,10.7919774 13.3115766,10.9493909 12.5638329,10.9493909 C10.0897973,10.9493909 8.48997356,9.46984371 8.48997356,7.21899391 C8.48997356,5.00964191 10.1514506,3.44849014 12.4723693,3.44849014 Z M42.311114,3.58385642 L42.311114,10.8174557 L40.1004034,10.8174557 L40.1004034,3.58385642 L42.311114,3.58385642 Z M64.5363555,3.44408534 C64.9780912,3.44408534 65.3593027,3.61679964 66,4.10410897 L65.3920489,6.10921762 C64.8111982,5.73341913 64.4297608,5.57646936 64.0794889,5.57646936 C63.268511,5.57646936 62.7495394,6.36121821 62.2608299,7.68729308 L62.2608299,10.8079738 L60.0471833,10.8079738 L60.0471833,3.57692466 L62.2608299,3.57692466 L62.2608299,5.65552383 L62.2931245,5.65552383 C62.9491786,4.14977973 63.683598,3.44408534 64.5363555,3.44408534 Z M28.4570788,3.44872197 C29.5566753,3.44872197 31.0223523,4.08927177 31.0223523,6.21956931 L31.0223523,6.21956931 L31.0223523,10.7987005 L28.8102866,10.7987005 L28.8102866,6.40665714 C28.8102866,5.38729505 28.3339981,4.96258016 27.7079801,4.96258016 C27.1576173,4.96258016 26.7452403,5.26094701 26.1637121,6.15697486 L26.1637121,6.15697486 L26.1637121,9.53452463 C25.6960053,8.93871827 24.7183603,8.57822065 23.9520981,8.49962984 L23.9520981,8.49962984 L23.9520981,3.58411143 L26.1637121,3.58411143 L26.1637121,4.61900622 C26.8680952,3.79229591 27.5559923,3.44872197 28.4570788,3.44872197 Z M18.071278,0.13256112 L18.071278,4.66045765 L18.1017659,4.66045765 C18.7422374,3.82818339 19.458364,3.45076208 20.3289626,3.45076208 C21.6099056,3.45076208 22.9073346,4.25359377 22.9073346,6.21372716 L22.9073346,6.21372716 L22.9073346,8.5190573 C22.1914338,8.60831234 21.4366892,8.84872137 20.6950431,9.24005255 L20.6950431,9.24005255 L20.6950431,6.69895001 C20.6950431,5.61838446 20.2374989,5.11623793 19.5496018,5.11623793 C19.0315336,5.11623793 18.5888946,5.44497467 18.071278,6.21372716 L18.071278,6.21372716 L18.071278,10.7967995 L15.8592123,10.7967995 L15.8592123,0.13256112 L18.071278,0.13256112 Z M47.2204545,4.9625338 C46.1061786,4.9625338 45.4476402,5.79503988 45.4476402,7.23911686 C45.4476402,8.55707763 46.1061786,9.43618181 47.1468319,9.43618181 C47.619507,9.43618181 48.0020736,9.26532216 48.4623278,8.84037544 L48.4623278,8.84037544 L48.4623278,5.38724868 C48.1398337,5.15078079 47.6197329,4.9625338 47.2204545,4.9625338 Z M35.7652966,4.80563039 C34.8956014,4.80563039 34.3276233,5.38590406 34.237063,6.39019712 L34.237063,6.39019712 L37.2919494,6.39019712 C37.2004858,5.40259591 36.6212159,4.80563039 35.7652966,4.80563039 Z M55.4698899,4.80563039 C54.6006463,4.80563039 54.0360558,5.38590406 53.9443663,6.39019712 L53.9443663,6.39019712 L57.0030919,6.39019712 C56.9116282,5.40259591 56.3262608,4.80563039 55.4698899,4.80563039 Z M42.4143663,0.541326015 C42.6221356,1.10351684 42.2486026,1.88710654 41.5821599,2.29002928 C40.9139106,2.69318386 40.2074949,2.56544483 40.0010806,2.00348583 C39.7919563,1.44036768 40.1636827,0.655850662 40.8317062,0.254782566 C41.4981488,-0.150226663 42.2047903,-0.0215603081 42.4143663,0.541326015 Z" id="SE-part"></path>
            </g>
        </g>
    </g>
</svg>