<?xml version="1.0" encoding="UTF-8"?>
<svg width="18px" height="18px" viewBox="0 0 18 18" version="1.1" xmlns="http://www.w3.org/2000/svg" xmlns:xlink="http://www.w3.org/1999/xlink">
    <title>Region icon</title>
    <defs>
        <path d="M5.03373494,4.86024096 C9.15421687,0.739759036 14.7060241,-0.171084337 17.3084337,2.60481928 C18.6096386,4.16626506 19.086747,6.29156627 18.5228916,8.28674699 L14.7927711,8.28674699 L14.3590361,9.80481928 L18.0457831,9.80481928 C17.8722892,10.3253012 17.6554217,10.8024096 17.3951807,11.2795181 L14.0554217,11.2795181 L13.5783133,12.8409639 L16.6144578,12.8409639 C16.0506024,13.6650602 15.4433735,14.4024096 14.7493976,15.0963855 C10.6289157,19.260241 5.12048193,20.1710843 2.4746988,17.3951807 C1.13012048,15.746988 0.653012048,13.4915663 1.26024096,11.453012 L4.33975904,11.453012 L4.90361446,9.89156627 L1.82409639,9.89156627 C1.99759036,9.37108434 2.25783133,8.8939759 2.4746988,8.41686747 L5.07710843,8.41686747 L5.59759036,6.89879518 L3.38554217,6.89879518 C3.8626506,6.16144578 4.42650602,5.46746988 5.03373494,4.86024096 Z M15.8337349,6.89879518 L16.2674699,4.64337349 L12.6674699,4.64337349 C10.4987952,4.55662651 8.54698795,6.0313253 8.02650602,8.15662651 L7.11566265,12.3204819 C7.11566265,12.4506024 7.02891566,12.5373494 6.98554217,12.6240964 C6.85542169,12.7975904 6.63855422,12.8843373 6.37831325,12.8843373 L4.07951807,12.8843373 L3.47228916,15.313253 L7.15903614,15.313253 C9.32771084,15.4433735 11.3228916,14.0987952 11.973494,11.973494 L13.1879518,7.20240964 L13.1879518,7.07228916 C13.3180723,6.94216867 13.4481928,6.89879518 13.5783133,6.89879518 L15.8337349,6.89879518 Z" id="path-1"></path>
    </defs>
    <g id="Symbols" stroke="none" stroke-width="1" fill="none" fill-rule="evenodd">
        <g id="Eyebrow/New/White" transform="translate(-518.000000, -11.000000)">
            <g id="Left_thing" transform="translate(130.000000, 0.000000)">
                <g id="brand" transform="translate(377.000000, 0.000000)">
                    <g id="Region-icon" transform="translate(10.000000, 10.000000)">
                        <mask id="mask-2" fill="white">
                            <use xlink:href="#path-1"></use>
                        </mask>
                        <use id="icon" fill="#333333" fill-rule="nonzero" xlink:href="#path-1"></use>
                    </g>
                </g>
            </g>
        </g>
    </g>
</svg>