<?xml version="1.0" encoding="UTF-8"?>
<svg width="75px" height="15px" viewBox="0 0 75 15" version="1.1" xmlns="http://www.w3.org/2000/svg" xmlns:xlink="http://www.w3.org/1999/xlink">
    <title>Square_D</title>
    <g id="Symbols" stroke="none" stroke-width="1" fill="none" fill-rule="evenodd">
        <g id="Brand_item/SquareD/Square" transform="translate(-13.000000, -28.000000)">
            <g id="Square_D" transform="translate(13.000000, 28.000000)">
                <path d="M75,0 L75,15 L-4.21769927e-15,15 L-4.21769927e-15,0 L75,0 Z M17.9043464,3.89668749 L14.9055325,3.89668749 C13.6143353,3.89668749 12.8649496,4.490713 12.8649496,6.03612086 L12.8649496,6.03612086 L12.8649496,8.96901481 C12.8649496,10.5148506 13.6143353,11.1080202 14.9055325,11.1080202 L14.9055325,11.1080202 L17.0596459,11.1080202 L17.6048462,11.9066165 L19.4861476,11.9066165 L18.8430907,10.9659334 C19.5518089,10.709578 19.9449293,10.0890182 19.9449293,8.96901481 L19.9449293,8.96901481 L19.9449293,6.03612086 C19.9449293,4.490713 19.1955435,3.89668749 17.9043464,3.89668749 L17.9043464,3.89668749 Z M57.4222655,3.89668749 L50.2698466,3.89668749 L50.2698466,11.1080202 L57.4222655,11.1080202 L57.4222655,9.34349054 L52.1507244,9.34349054 L52.1507244,8.22049131 L56.0382953,8.22049131 L56.0382953,6.70718137 L52.1507244,6.70718137 L52.1507244,5.6620731 L57.4222655,5.6620731 L57.4222655,3.89668749 Z M45.8705414,3.89668749 L40.917987,3.89668749 L40.917987,11.1080202 L42.7984411,11.1080202 L42.7984411,8.6758538 L44.6242481,8.6758538 L46.2823011,11.1080202 L48.4855545,11.1080202 L46.7520969,8.56714885 C47.8111497,8.27142001 47.988647,7.3487118 47.988647,6.56680647 L47.988647,6.56680647 L47.988647,5.95780193 C47.988647,4.65462638 47.4006608,3.89668749 45.8705414,3.89668749 L45.8705414,3.89668749 Z M35.9412861,3.89668749 L34.0277895,3.89668749 L30.622723,11.1080202 L32.8081844,11.1080202 L33.5355418,9.46803047 L36.4339575,9.46803047 L37.1608913,11.1080202 L39.3467762,11.1080202 L35.9412861,3.89668749 Z M24.0646446,3.89668749 L22.1871558,3.89668749 L22.1871558,8.96901481 C22.1871558,10.5148506 22.9369652,11.1080202 24.2277387,11.1080202 L24.2277387,11.1080202 L27.2273998,11.1080202 C28.5177497,11.1080202 29.2671355,10.5148506 29.2671355,8.96901481 L29.2671355,8.96901481 L29.2671355,3.89668749 L27.3904939,3.89668749 L27.3904939,8.77514337 C27.3904939,9.21081914 27.1583496,9.34391851 26.8567313,9.34391851 L26.8567313,9.34391851 L24.5979836,9.34391851 C24.2963653,9.34391851 24.0646446,9.21081914 24.0646446,8.77514337 L24.0646446,8.77514337 L24.0646446,3.89668749 Z M8.79522155,3.89668749 L5.79471321,3.89668749 C4.5043633,3.89668749 3.75540117,4.490713 3.75540117,6.03612086 L3.75540117,6.03612086 L3.75540117,6.32072242 C3.75540117,7.50962938 4.60984495,7.93845759 5.47699737,8.06042968 C5.74623213,8.09811502 6.06917131,8.14270207 6.39976285,8.18802662 L6.79719848,8.24237558 C7.52175765,8.3412178 8.19419733,8.43169563 8.32415488,8.44817256 C8.85537575,8.51664812 8.95789206,8.72293075 8.95789206,8.93392108 C8.95789206,9.166738 8.78124206,9.34349054 8.42370584,9.34349054 L8.42370584,9.34349054 L6.1658053,9.34349054 C5.86291621,9.34349054 5.63119546,9.21081914 5.63119546,8.77428743 L5.63119546,8.77428743 L5.63119546,8.60737824 L3.75540117,8.60737824 L3.75540117,8.96901481 C3.75540117,10.5148506 4.5043633,11.1080202 5.79471321,11.1080202 L5.79471321,11.1080202 L8.79522155,11.1080202 C10.0851478,11.1080202 10.8353808,10.5148506 10.8353808,8.96901481 L10.8353808,8.96901481 L10.8353808,8.69382864 C10.8353808,7.65941967 10.2122342,7.08550886 8.99135813,6.92073954 C8.07294756,6.79748352 6.42717953,6.57622186 6.22002881,6.54840366 C5.9370499,6.51031413 5.63119546,6.39861337 5.63119546,6.08662159 C5.63119546,5.85979629 5.7845463,5.6620731 6.13106837,5.6620731 L6.13106837,5.6620731 L8.42370584,5.6620731 C8.72574769,5.6620731 8.95789206,5.79431653 8.95789206,6.23042027 L8.95789206,6.23042027 L8.95789206,6.35410425 L10.8353808,6.35410425 L10.8353808,6.03612086 C10.8353808,4.490713 10.0851478,3.89668749 8.79522155,3.89668749 L8.79522155,3.89668749 Z M17.5348385,5.66196295 C17.8364694,5.66196295 18.0686235,5.79508489 18.0686235,6.23126257 L18.0686235,6.23126257 L18.0686235,8.77641711 C18.0686235,9.11714079 17.9275517,9.27294911 17.7216632,9.32474253 L17.7216632,9.32474253 L17.0925594,8.40444615 L15.2116026,8.40444615 L15.8546865,9.34528868 L15.2764194,9.34528868 C14.9743648,9.34528868 14.743058,9.21259479 14.743058,8.77641711 L14.743058,8.77641711 L14.743058,6.23126257 C14.743058,5.79508489 14.9743648,5.66196295 15.2764194,5.66196295 L15.2764194,5.66196295 Z M34.9873639,6.21414077 L35.7571158,7.95371495 L34.2040555,7.95371495 L34.9873639,6.21414077 Z M45.55169,5.66299025 C45.9838017,5.66299025 46.1151297,5.89713077 46.1151297,6.20232674 L46.1151297,6.20232674 L46.1151297,6.63422397 C46.1151297,6.93941993 45.9838017,7.17398849 45.55169,7.17398849 L45.55169,7.17398849 L42.798037,7.17398849 L42.798037,5.66299025 Z" id="Fill-31" fill="#3DCD58"></path>
                <rect id="Rectangle" fill="#3DCD58" x="62.5494071" y="2.4" width="10.0790514" height="10.2"></rect>
                <path d="M73.9731166,1.04006332 L73.9731166,13.9623086 L61.184305,13.9623086 L61.184305,1.04006332 L73.9731166,1.04006332 Z M69.3990872,3.8137938 L63.2427665,3.8137938 L63.2427665,5.89409166 L64.6157802,5.89409166 L64.6157802,9.10785222 L63.2427665,9.10785222 L63.2427665,11.1885781 L69.3990872,11.1885781 C71.2262419,11.1885781 71.9142315,10.2982449 71.9142315,8.75514328 L71.9142315,8.75514328 L71.9142315,6.24680059 C71.9142315,4.70412704 71.2262419,3.8137938 69.3990872,3.8137938 L69.3990872,3.8137938 Z M69.8555158,5.89417727 L69.8555158,9.10836587 L66.6739875,9.10836587 L66.6739875,5.89417727 L69.8555158,5.89417727 Z" id="Fill-28" fill="#FFFFFF"></path>
            </g>
        </g>
    </g>
</svg>